<svg width="16" height="13" viewBox="0 0 16 13" fill="none" xmlns="http://www.w3.org/2000/svg">
<g clip-path="url(#clip0_13154_47799)">
<g clip-path="url(#clip1_13154_47799)">
<g clip-path="url(#clip2_13154_47799)">
<path d="M0 8.25H16V12.25H0V8.25Z" fill="black"/>
<path d="M0 4.25H16V8.25H0V4.25Z" fill="white"/>
<path d="M0 0.25H16V4.25H0V0.25Z" fill="#CE1126"/>
<path d="M8.01571 6.2987L9.38547 7.5703L9.28795 5.2609C9.27363 4.9109 8.96947 4.99118 8.74855 5.11744C8.52471 5.26088 8.26935 5.26088 7.99961 5.16618C7.72991 5.26088 7.47455 5.26088 7.25073 5.11744C7.02983 4.99118 6.72573 4.91088 6.71133 5.26088L6.61377 7.57028L8.01573 6.29868L8.01571 6.2987Z" fill="white" stroke="#C09300" stroke-width="0.0254" stroke-linejoin="round"/>
<path d="M6.86915 5.17969L6.77447 7.42609L6.61377 7.56945L6.71137 5.26005C6.75725 5.22849 6.83763 5.17971 6.86917 5.17971L6.86915 5.17969ZM7.06155 5.34049L6.98121 7.21959L6.82057 7.38399L6.91813 5.21419C6.94973 5.24573 7.04441 5.32319 7.06157 5.34039L7.06155 5.34049ZM7.23655 5.48389L7.17345 7.05113L7.04435 7.17733L7.12471 5.38921C7.15619 5.42077 7.21931 5.46669 7.23655 5.48389ZM7.42595 5.56429L7.36283 6.90003L7.23657 7.00243L7.29971 5.51553C7.33131 5.52987 7.39441 5.56429 7.42597 5.56429H7.42595ZM7.60095 5.56429L7.55501 6.67743L7.42591 6.80369L7.47471 5.57865C7.50621 5.57865 7.58657 5.57865 7.60095 5.56429Z" fill="#C09300"/>
<path d="M9.13036 5.17969L9.22504 7.42609L9.38574 7.56945L9.28814 5.26005C9.24226 5.22849 9.16188 5.17971 9.13034 5.17971L9.13036 5.17969ZM8.93796 5.34049L9.0183 7.21959L9.17894 7.38399L9.08138 5.21419C9.04978 5.24573 8.9551 5.32319 8.93794 5.34039L8.93796 5.34049ZM8.76296 5.48389L8.82606 7.05113L8.95516 7.17733L8.8748 5.38921C8.84332 5.42077 8.7802 5.46669 8.76296 5.48389ZM8.57356 5.56429L8.63668 6.90003L8.76294 7.00243L8.6998 5.51553C8.6682 5.52987 8.6051 5.56429 8.57354 5.56429H8.57356ZM8.39856 5.56429L8.4445 6.67743L8.5736 6.80369L8.5248 5.57865C8.4933 5.57865 8.41294 5.57865 8.39856 5.56429Z" fill="#C09300"/>
<path d="M8.06317 6.55176L8.25543 7.42686L8.19227 7.48996L8.12627 7.44116L8.01727 6.66082L8.06315 7.44118L8.00001 7.52152L7.93687 7.4412L7.98279 6.66086L7.87379 7.44122L7.80773 7.49002L7.74463 7.42692L7.93683 6.55182H8.06313L8.06317 6.55176Z" fill="#C09300" stroke="#C09300" stroke-width="0.02148"/>
<path d="M7.56959 6.16701L7.18799 7.52111L7.71309 7.60147L7.93685 6.58299L7.56959 6.16699V6.16701Z" fill="white" stroke="#C09300" stroke-width="0.02378" stroke-linejoin="round"/>
<path d="M7.44336 6.62901L7.48928 6.74087L7.73738 6.50391" stroke="#C09300" stroke-width="0.0254" stroke-linejoin="round"/>
<path d="M7.6151 6.34863L7.66702 6.83555L7.82482 6.62899M7.7617 6.70923L7.8479 7.00673M7.8817 6.89743L7.70734 7.16223M7.76174 7.42657L7.70594 7.16261L7.6572 6.89413L7.5404 7.05233L7.48916 6.86993L7.32568 7.03763L7.4088 7.34267L7.52356 7.15397L7.58666 7.34621L7.70446 7.16295" stroke="#C09300" stroke-width="0.0254" stroke-linejoin="round"/>
<path d="M7.2998 7.4897L7.40581 7.34082L7.47484 7.56996L7.56954 7.40932L7.63268 7.60162" stroke="#C09300" stroke-width="0.0254" stroke-linejoin="round"/>
<path d="M8.42992 6.16701L8.81152 7.52111L8.28642 7.60147L8.06266 6.58299L8.42992 6.16699V6.16701Z" fill="white" stroke="#C09300" stroke-width="0.02378" stroke-linejoin="round"/>
<path d="M8.55615 6.62901L8.51023 6.74087L8.26213 6.50391" stroke="#C09300" stroke-width="0.0254" stroke-linejoin="round"/>
<path d="M8.38441 6.34863L8.33249 6.83555L8.17469 6.62899M8.23781 6.70923L8.15161 7.00673M8.11781 6.89743L8.29217 7.16223M8.23777 7.42657L8.29357 7.16261L8.34231 6.89413L8.45911 7.05233L8.51035 6.86993L8.67383 7.03763L8.59071 7.34267L8.47595 7.15397L8.41285 7.34621L8.29505 7.16295" stroke="#C09300" stroke-width="0.0254" stroke-linejoin="round"/>
<path d="M8.69971 7.4897L8.59371 7.34082L8.52467 7.56996L8.42997 7.40932L8.36683 7.60162" stroke="#C09300" stroke-width="0.0254" stroke-linejoin="round"/>
<path d="M7.99986 8.12682C8.39872 8.12682 8.78034 8.09526 9.00412 8.03214C9.09882 8.01494 9.09882 7.96618 9.09882 7.90304C9.19354 7.8715 9.14472 7.75964 9.21072 7.75964C9.14472 7.7769 9.1304 7.64776 9.05006 7.66504C9.05006 7.55308 8.93814 7.53876 8.84346 7.57024C8.65406 7.63344 8.31836 7.64776 7.99986 7.64776C7.68138 7.63342 7.34852 7.63342 7.15626 7.57026C7.0616 7.53878 6.94974 7.5531 6.94974 7.66506C6.86938 7.64778 6.85502 7.77692 6.78906 7.75966C6.85506 7.75966 6.80626 7.87152 6.90094 7.90306C6.90094 7.96622 6.90094 8.015 6.9985 8.03218C7.2194 8.0953 7.60106 8.12686 7.99986 8.12686V8.12682Z" fill="white" stroke="#C09300" stroke-width="0.04756" stroke-linecap="round" stroke-linejoin="round"/>
<path d="M7.45753 7.52123C7.58661 7.53843 7.73008 7.55279 7.84202 7.53843C7.90508 7.53843 7.95103 7.64747 7.82477 7.66471C7.71291 7.67901 7.53786 7.66471 7.44316 7.64747C7.36282 7.63311 7.18781 7.60157 7.07589 7.56995C6.96401 7.52123 7.04436 7.42659 7.10744 7.44091C7.20504 7.47245 7.33127 7.50405 7.45753 7.52123ZM8.54212 7.52123C8.41298 7.53843 8.26956 7.55279 8.16052 7.53843C8.09448 7.53843 8.04859 7.64747 8.17485 7.66471C8.28677 7.67901 8.46179 7.66471 8.55641 7.64747C8.63681 7.63311 8.8118 7.60157 8.92368 7.56995C9.03562 7.52123 8.95528 7.42659 8.89214 7.44091C8.7946 7.47245 8.66834 7.50405 8.54214 7.52123H8.54212Z" fill="white" stroke="#C09300" stroke-width="0.0254" stroke-linecap="round" stroke-linejoin="round"/>
<path d="M7.06169 7.45783C6.96415 7.44063 6.91825 7.55247 6.94983 7.61557C6.96417 7.58401 7.03017 7.58401 7.04453 7.55247C7.06169 7.50373 7.03017 7.50373 7.06169 7.45783ZM7.44329 7.75123C7.44329 7.68817 7.50639 7.69593 7.50639 7.63281C7.50639 7.60125 7.48919 7.55241 7.45765 7.55241C7.42605 7.55241 7.39449 7.58401 7.39449 7.61555C7.38013 7.67869 7.44329 7.68815 7.44329 7.75121V7.75123ZM7.89749 7.56963C7.99209 7.56963 7.98273 7.69591 7.93681 7.75903C7.93681 7.71313 7.85647 7.69591 7.85647 7.66439C7.85647 7.61555 7.92897 7.61555 7.89747 7.56963H7.89749ZM8.93809 7.45783C9.03565 7.44063 9.08157 7.55247 9.04999 7.61557C9.03563 7.58401 8.96965 7.58401 8.95531 7.55247C8.93811 7.50373 8.96971 7.50373 8.93811 7.45783H8.93809ZM8.55649 7.75123C8.55649 7.68817 8.49343 7.69593 8.49343 7.63281C8.49343 7.60125 8.51063 7.55241 8.54219 7.55241C8.57373 7.55241 8.60531 7.58401 8.60531 7.61555C8.61971 7.67869 8.55651 7.68815 8.55651 7.75121L8.55649 7.75123ZM8.10229 7.56963C8.00765 7.56963 8.01703 7.69591 8.06295 7.75903C8.06295 7.71313 8.14325 7.69591 8.14325 7.66439C8.14325 7.61555 8.07073 7.61555 8.10229 7.56963Z" fill="white" stroke="#C09300" stroke-width="0.0254" stroke-linecap="round" stroke-linejoin="round"/>
<path d="M7.09336 7.49029C7.12496 7.49029 7.17372 7.50465 7.18806 7.52183L7.09326 7.49023L7.09336 7.49029ZM7.25096 7.53909C7.2682 7.53909 7.33132 7.55341 7.36288 7.57059L7.25088 7.53899L7.25096 7.53909ZM7.82496 7.60209C7.7934 7.60209 7.73028 7.60209 7.7131 7.61639L7.8249 7.60199L7.82496 7.60209ZM7.64996 7.60209C7.63276 7.58485 7.56964 7.58485 7.5381 7.60209H7.6499H7.64996ZM8.90676 7.49029C8.8752 7.49029 8.82926 7.50465 8.81206 7.52183L8.90676 7.49029ZM8.74896 7.53909C8.73176 7.53909 8.66862 7.55341 8.63706 7.57059L8.74906 7.53899L8.74896 7.53909ZM8.17496 7.60209C8.20656 7.60209 8.26966 7.60209 8.28686 7.61639L8.17486 7.60199L8.17496 7.60209ZM8.34996 7.60209C8.36716 7.58485 8.43032 7.58485 8.46186 7.60209H8.34986H8.34996Z" fill="white" stroke="#C09300" stroke-width="0.01782" stroke-linecap="round" stroke-linejoin="round"/>
<path d="M7.06701 7.74226C7.05633 7.74022 7.05071 7.73176 7.05341 7.72176C7.05669 7.70956 7.06641 7.70262 7.07565 7.70588C7.08153 7.70798 7.09225 7.7188 7.09229 7.72268C7.09235 7.72712 7.08669 7.73772 7.08425 7.73776C7.08319 7.73776 7.08155 7.73868 7.08061 7.7398C7.07861 7.74216 7.07235 7.7433 7.06701 7.74228V7.74226ZM8.16561 7.82066C8.16161 7.81918 8.15531 7.8103 8.15531 7.80618C8.15535 7.79844 8.16679 7.78582 8.17391 7.78578C8.17739 7.78574 8.18699 7.79072 8.19057 7.79444C8.19707 7.80118 8.19565 7.81228 8.18749 7.81858C8.18349 7.82168 8.17149 7.82282 8.16561 7.82064V7.82066ZM8.17281 7.87026C8.16441 7.86742 8.16133 7.8633 8.16065 7.85398C8.15993 7.84428 8.16089 7.84278 8.17115 7.83718L8.17845 7.83318L8.18539 7.83628C8.19495 7.84058 8.19923 7.8452 8.19959 7.85164C8.19993 7.8586 8.19479 7.86572 8.18679 7.8693C8.17973 7.8725 8.17931 7.8725 8.17279 7.8703L8.17281 7.87026Z" fill="#C09300"/>
<path d="M7.15505 7.65242C7.14813 7.65222 7.13865 7.65856 7.13317 7.66182C7.12017 7.66482 7.10509 7.67282 7.09257 7.6643C7.08021 7.6605 7.06377 7.6635 7.06193 7.67866C7.06509 7.6917 7.08333 7.69916 7.09443 7.69054C7.10263 7.6798 7.12503 7.67348 7.12753 7.6918C7.11839 7.7056 7.11943 7.72396 7.11193 7.73866C7.11069 7.7478 7.10687 7.7565 7.10193 7.76426C7.09267 7.7652 7.08283 7.76412 7.07503 7.7699C7.06251 7.77058 7.04973 7.7768 7.04253 7.7874C7.03447 7.79896 7.02673 7.8107 7.02441 7.8249C7.02653 7.8394 7.04313 7.84356 7.05561 7.8443C7.06897 7.84794 7.08233 7.85276 7.09561 7.85678C7.11735 7.86162 7.13767 7.86946 7.15941 7.87426C7.19107 7.8838 7.22435 7.8882 7.25625 7.89676C7.25961 7.89784 7.26275 7.89882 7.26625 7.89924C7.27951 7.90198 7.28641 7.88758 7.28751 7.87674C7.29411 7.85354 7.29911 7.82994 7.30563 7.80674C7.31015 7.7974 7.31559 7.77638 7.29753 7.7811C7.28723 7.78726 7.27849 7.79656 7.26565 7.79734C7.24819 7.79834 7.25817 7.81624 7.26505 7.8236C7.26657 7.83534 7.26285 7.84936 7.25505 7.8586C7.24465 7.8652 7.23161 7.85746 7.22065 7.85484C7.20919 7.85504 7.18621 7.84918 7.19693 7.8336C7.20073 7.82206 7.20107 7.8094 7.20567 7.79796C7.21157 7.7857 7.21241 7.77228 7.21507 7.75924C7.20787 7.7437 7.19547 7.76436 7.18567 7.76612C7.17893 7.7708 7.15359 7.7728 7.16695 7.78486C7.17845 7.7936 7.16963 7.8088 7.16755 7.81986C7.16683 7.83526 7.15081 7.83894 7.13819 7.83546C7.12563 7.83486 7.10819 7.82554 7.11879 7.81174C7.12123 7.80022 7.12525 7.78894 7.12759 7.77734C7.13231 7.76338 7.13631 7.75008 7.14131 7.7361C7.14351 7.7237 7.14791 7.71194 7.15381 7.7011C7.15417 7.68738 7.16337 7.67558 7.16321 7.6617C7.16225 7.65494 7.15921 7.6525 7.15507 7.65234L7.15505 7.65242ZM7.08317 7.79742C7.08467 7.79715 7.08621 7.79736 7.08757 7.79802C7.09257 7.80016 7.09269 7.80422 7.08757 7.80866C7.08531 7.8106 7.08277 7.81246 7.08193 7.81242C7.07257 7.81162 7.06981 7.81022 7.06943 7.80682C7.06903 7.80378 7.07003 7.8029 7.07627 7.79992C7.07845 7.7988 7.08076 7.79796 7.08315 7.79742H7.08317ZM7.06245 7.89782C7.05253 7.8885 7.05413 7.8817 7.06879 7.87076C7.07507 7.86608 7.07889 7.8666 7.08605 7.87316C7.09711 7.88324 7.09755 7.88962 7.08779 7.89826C7.08299 7.90252 7.08087 7.9034 7.07525 7.90346C7.06939 7.90352 7.06773 7.90278 7.06245 7.89782ZM7.12345 7.91622C7.12117 7.91568 7.11902 7.91467 7.11714 7.91326C7.11526 7.91186 7.11368 7.91008 7.11252 7.90804C7.11135 7.906 7.11061 7.90374 7.11035 7.90141C7.11009 7.89907 7.11031 7.89671 7.11099 7.89446C7.11359 7.88578 7.11505 7.88492 7.12779 7.8848C7.14211 7.88464 7.14487 7.887 7.14499 7.8996C7.14509 7.9067 7.14455 7.90834 7.14099 7.9116C7.13859 7.91361 7.13577 7.91506 7.13274 7.91585C7.1297 7.91665 7.12654 7.91677 7.12345 7.9162V7.91622ZM8.90565 7.91782C8.90111 7.91402 8.90019 7.91234 8.90015 7.90752C8.90009 7.89932 8.90481 7.89328 8.91507 7.88864C8.92873 7.8825 8.93427 7.88334 8.93941 7.89238C8.94625 7.90438 8.94591 7.90932 8.93773 7.91742C8.93323 7.92188 8.93237 7.92214 8.92203 7.92222C8.91189 7.9223 8.91073 7.92202 8.90567 7.91782H8.90565ZM7.20445 7.94082C7.19717 7.93888 7.19341 7.93342 7.19331 7.92468C7.19323 7.918 7.19371 7.91694 7.19837 7.91328C7.20141 7.91092 7.20617 7.90888 7.20997 7.90838C7.21529 7.90764 7.21723 7.90812 7.22153 7.91114C7.23253 7.91888 7.23489 7.92654 7.22853 7.93394C7.22173 7.94188 7.21527 7.9437 7.20445 7.94082ZM7.64285 7.96042C7.64125 7.95842 7.63765 7.95722 7.63729 7.95468C7.63793 7.94358 7.63849 7.93234 7.64201 7.92172C7.64393 7.91126 7.64225 7.90032 7.64589 7.89012C7.64963 7.8716 7.64963 7.85252 7.65393 7.83408C7.65413 7.82458 7.65503 7.81508 7.65779 7.80596C7.66093 7.79152 7.65805 7.77644 7.66231 7.76216C7.66185 7.75682 7.66801 7.7425 7.67343 7.75096C7.68129 7.76252 7.69163 7.77188 7.70183 7.7813C7.71059 7.78634 7.70255 7.79378 7.69651 7.7963C7.68819 7.79956 7.68617 7.8087 7.68677 7.81674C7.68561 7.82502 7.68227 7.83286 7.68193 7.84134C7.68019 7.85378 7.68053 7.86642 7.67893 7.87886C7.67527 7.89106 7.67665 7.90406 7.67545 7.91662C7.67565 7.92458 7.67185 7.93182 7.67235 7.93982C7.67139 7.94794 7.67103 7.9577 7.66421 7.96326C7.65761 7.96658 7.64813 7.96602 7.64285 7.96042ZM8.23685 7.76442C8.22721 7.77172 8.21857 7.78032 8.20997 7.78882C8.19813 7.79778 8.21971 7.80302 8.22247 7.81068C8.22563 7.8224 8.22547 7.83488 8.22627 7.84692C8.22983 7.85796 8.23141 7.86968 8.23061 7.88132C8.22961 7.89372 8.21335 7.89112 8.20625 7.89818C8.19639 7.90232 8.19245 7.91198 8.18497 7.91878C8.18005 7.92846 8.17873 7.94032 8.17809 7.9513C8.17881 7.96026 8.17205 7.9703 8.17809 7.97818C8.17889 7.97928 8.17981 7.98082 8.18059 7.98192C8.18263 7.98482 8.18745 7.98252 8.19059 7.98318C8.20067 7.98258 8.21119 7.98412 8.22059 7.98004C8.24479 7.97588 8.26923 7.97554 8.29373 7.97444C8.30873 7.97492 8.32313 7.9697 8.33809 7.97004C8.34983 7.97264 8.35509 7.95994 8.35497 7.9507C8.34833 7.93762 8.35407 7.9221 8.34873 7.90882C8.34403 7.89534 8.34587 7.88022 8.34373 7.8663C8.34343 7.8553 8.32953 7.85126 8.32247 7.85942C8.31567 7.86632 8.30463 7.8677 8.29937 7.8763C8.29343 7.88834 8.31191 7.88836 8.31497 7.89754C8.31851 7.90684 8.31737 7.91714 8.31811 7.92694C8.32041 7.93878 8.30751 7.93944 8.29937 7.94068C8.28863 7.94468 8.27357 7.9474 8.26749 7.93442C8.26369 7.92482 8.26421 7.91456 8.26313 7.90442C8.26287 7.88658 8.25859 7.86906 8.25753 7.8513C8.25649 7.82936 8.25269 7.80756 8.25127 7.7857C8.25107 7.77656 8.24983 7.7617 8.23687 7.76442H8.23685ZM8.22435 7.92942L8.23061 7.93002L8.23121 7.93754L8.23185 7.94504L8.22373 7.94756C8.22106 7.94836 8.21835 7.94899 8.21559 7.94944C8.21431 7.94867 8.21306 7.94783 8.21185 7.94694C8.20745 7.94374 8.20857 7.93924 8.21435 7.93318C8.21761 7.92978 8.21915 7.92912 8.22435 7.92944V7.92942ZM7.62505 7.74382C7.61745 7.74652 7.60781 7.75768 7.60005 7.75758C7.58245 7.75882 7.58491 7.77598 7.59755 7.78194C7.59921 7.78714 7.59765 7.7937 7.59815 7.79944C7.60063 7.81524 7.59067 7.82796 7.59255 7.84384C7.59167 7.86124 7.58641 7.8782 7.58567 7.89572C7.58075 7.91378 7.58067 7.93236 7.57757 7.95072C7.57549 7.96718 7.56357 7.96138 7.55317 7.95696C7.55311 7.94984 7.55265 7.94286 7.55257 7.93572C7.55689 7.91938 7.54377 7.9146 7.53069 7.9126C7.51699 7.9139 7.51025 7.90214 7.51321 7.8901C7.51911 7.8831 7.53393 7.88502 7.54321 7.88384C7.56281 7.88792 7.56205 7.8616 7.55197 7.8526C7.54507 7.83988 7.52797 7.8344 7.52321 7.82134C7.52513 7.80402 7.51361 7.7867 7.49947 7.77822C7.47767 7.77668 7.46123 7.79546 7.45319 7.81382C7.44415 7.81642 7.43511 7.81916 7.42631 7.82258C7.41211 7.82612 7.39191 7.85072 7.41131 7.86008C7.42221 7.86308 7.45531 7.87064 7.44071 7.88568C7.43245 7.89984 7.41667 7.90008 7.40257 7.89632C7.38809 7.89632 7.37197 7.88928 7.37257 7.87258C7.36961 7.85758 7.37011 7.84142 7.36317 7.82758C7.36023 7.81078 7.34117 7.81472 7.34007 7.83008C7.32541 7.84076 7.32735 7.85802 7.33757 7.87068C7.34397 7.88528 7.33763 7.90224 7.33131 7.91568C7.32751 7.9332 7.30821 7.9338 7.29445 7.93944C7.28765 7.94208 7.26185 7.9379 7.27129 7.9526C7.28637 7.9579 7.30435 7.9627 7.32005 7.95884C7.33651 7.9568 7.35081 7.94554 7.35881 7.93134C7.36985 7.92014 7.38885 7.926 7.40317 7.92574C7.41863 7.92568 7.43443 7.93654 7.44943 7.92946C7.45375 7.9182 7.47383 7.89958 7.48003 7.91886C7.47897 7.93612 7.49423 7.94538 7.51003 7.94326C7.52731 7.94226 7.52091 7.95546 7.52063 7.96574C7.52179 7.98442 7.53383 7.99424 7.54943 8.00198C7.55471 8.00342 7.56031 8.00294 7.56563 8.00198C7.58063 7.99728 7.59673 7.99062 7.60127 7.97386C7.60735 7.96026 7.60747 7.94486 7.61191 7.93074C7.61545 7.90814 7.62003 7.88554 7.62065 7.86262C7.62619 7.84182 7.62461 7.8199 7.62879 7.79886C7.63145 7.78322 7.63339 7.7676 7.63505 7.75198C7.63321 7.74364 7.62961 7.74224 7.62505 7.74386V7.74382ZM7.48945 7.82694C7.49245 7.82734 7.49413 7.83102 7.49445 7.83754C7.49475 7.84486 7.49855 7.85078 7.50317 7.85194C7.50683 7.85286 7.50651 7.85674 7.50257 7.85944C7.50025 7.86104 7.49613 7.862 7.48881 7.86196C7.47725 7.8619 7.47007 7.8589 7.46381 7.85256L7.46005 7.84884L7.46565 7.84508C7.46851 7.84292 7.47365 7.83844 7.47693 7.83508C7.48263 7.82928 7.48639 7.8266 7.48943 7.82696L7.48945 7.82694ZM8.81005 7.66942C8.79887 7.66998 8.78778 7.67165 8.77693 7.67442C8.75613 7.67312 8.74567 7.69496 8.76567 7.70568C8.77773 7.73636 8.79651 7.69934 8.81567 7.70192C8.84447 7.70752 8.84687 7.73856 8.85133 7.76192C8.85293 7.78506 8.85961 7.80756 8.86633 7.82942C8.88557 7.85082 8.85193 7.86422 8.83757 7.84754C8.82537 7.83426 8.79917 7.81794 8.78445 7.8363C8.76635 7.84394 8.76561 7.8681 8.75065 7.87504C8.72649 7.88244 8.72345 7.85268 8.71065 7.84004C8.69893 7.82358 8.67645 7.82214 8.65817 7.81632C8.64957 7.79892 8.65407 7.7694 8.63629 7.75756C8.62139 7.76364 8.59403 7.7916 8.61693 7.80444C8.63927 7.82364 8.60717 7.83244 8.59693 7.8457C8.58229 7.86198 8.57993 7.88442 8.57753 7.90506C8.55237 7.919 8.54747 7.88934 8.54443 7.87072C8.54243 7.84848 8.52369 7.855 8.51063 7.86322C8.49163 7.87092 8.48209 7.88902 8.46879 7.90322C8.46719 7.91616 8.46953 7.93034 8.46939 7.94382C8.47373 7.96006 8.49345 7.95242 8.50565 7.95134C8.52525 7.94314 8.53325 7.96388 8.51755 7.97574C8.50691 7.98924 8.47315 7.98214 8.47629 8.00384C8.48717 8.00508 8.49849 8.00468 8.50943 8.00384C8.53123 7.99784 8.55463 7.98244 8.55691 7.9582C8.55977 7.937 8.59025 7.94088 8.60691 7.93632C8.62771 7.93032 8.65279 7.92878 8.65751 7.95506C8.67171 7.96998 8.70251 7.98676 8.71815 7.96634C8.73405 7.95664 8.74167 7.93958 8.74065 7.92134C8.73745 7.90564 8.76605 7.90508 8.77317 7.91384C8.78357 7.93098 8.81617 7.92592 8.83193 7.91632C8.84865 7.90398 8.85227 7.88222 8.87629 7.88192C8.91195 7.87126 8.94899 7.86512 8.98379 7.85192C9.01199 7.8458 8.97959 7.82798 8.97255 7.81756C8.95107 7.80696 8.93239 7.8504 8.90815 7.82882C8.88945 7.81448 8.89075 7.78726 8.88379 7.7663C8.87905 7.73914 8.88025 7.70784 8.86067 7.6863C8.84727 7.672 8.82897 7.66856 8.81007 7.66942H8.81005ZM8.67379 7.85882C8.67631 7.85874 8.67915 7.85998 8.68379 7.86254C8.69259 7.86738 8.69879 7.8754 8.69879 7.88194C8.69879 7.88618 8.69771 7.88646 8.69129 7.88942C8.68735 7.89122 8.68289 7.89322 8.68129 7.89318C8.67769 7.89314 8.66881 7.88604 8.66879 7.88318C8.66879 7.88198 8.66763 7.87744 8.66629 7.87378C8.66395 7.86738 8.66429 7.86746 8.66755 7.86318C8.66961 7.86042 8.67129 7.85886 8.67381 7.85878L8.67379 7.85882ZM8.80443 7.86568C8.81183 7.86518 8.81627 7.86748 8.81943 7.87318C8.82303 7.87978 8.82057 7.88478 8.81127 7.88878C8.80721 7.89058 8.80313 7.89198 8.80253 7.89192C8.80193 7.89186 8.79857 7.88988 8.79503 7.88752C8.78963 7.884 8.78883 7.88226 8.78877 7.87818C8.78871 7.87186 8.79577 7.86624 8.80441 7.86568H8.80443ZM8.62563 7.86754C8.62783 7.8672 8.62983 7.86834 8.63253 7.87066C8.63613 7.87376 8.63727 7.87626 8.63813 7.88254C8.63879 7.88694 8.63869 7.89258 8.63813 7.89504C8.63719 7.89958 8.63709 7.89938 8.62693 7.89944C8.61409 7.89956 8.61293 7.89816 8.61313 7.88632C8.61333 7.87878 8.61339 7.87676 8.61753 7.87256C8.62073 7.86932 8.62347 7.8679 8.62565 7.86756L8.62563 7.86754ZM8.51563 7.8963C8.51779 7.89676 8.51977 7.89782 8.52133 7.89937C8.52289 7.90092 8.52397 7.90289 8.52443 7.90504C8.52571 7.91144 8.52457 7.9143 8.51943 7.91694C8.51497 7.9192 8.50473 7.91994 8.50191 7.9182C8.5004 7.91724 8.49912 7.91596 8.49815 7.91444C8.49679 7.91204 8.49705 7.91084 8.49875 7.90944C8.49999 7.90844 8.50129 7.90704 8.50127 7.90632C8.50127 7.90558 8.50263 7.90306 8.50441 7.90072C8.50564 7.89897 8.50736 7.89761 8.50935 7.89683C8.51134 7.89605 8.51352 7.89587 8.51561 7.89632L8.51563 7.8963ZM8.70063 7.92004C8.70423 7.92004 8.70723 7.92128 8.70943 7.92318C8.71311 7.92644 8.71299 7.93118 8.70877 7.93444C8.70607 7.93652 8.69137 7.93634 8.68627 7.93444C8.68403 7.9336 8.68317 7.93244 8.68315 7.93004C8.68311 7.92724 8.68391 7.92552 8.68875 7.92318C8.69287 7.92124 8.69709 7.92008 8.70065 7.92006L8.70063 7.92004ZM8.35725 8.01642C8.35533 8.01516 8.35249 8.01408 8.35535 8.01198C8.35881 8.00594 8.36571 8.00384 8.37185 8.00158C8.3828 7.99666 8.39227 7.98895 8.39931 7.97922C8.40031 7.97256 8.40779 7.96896 8.40775 7.96202C8.40781 7.9525 8.40839 7.94276 8.40607 7.93348C8.40351 7.92496 8.39707 7.91844 8.38955 7.914C8.38443 7.90994 8.37607 7.9088 8.37419 7.9017C8.37313 7.89484 8.37925 7.88962 8.38139 7.8835C8.38585 7.8751 8.38959 7.86624 8.39439 7.858C8.39959 7.85224 8.40759 7.8577 8.41027 7.86326C8.41407 7.8688 8.41741 7.87478 8.41927 7.8812C8.42533 7.88784 8.43067 7.8956 8.43287 7.90444C8.43583 7.91064 8.44053 7.91648 8.44027 7.92376C8.44027 7.93208 8.44495 7.9395 8.44467 7.94788C8.44493 7.95908 8.44491 7.97078 8.44083 7.98136C8.43803 7.98724 8.43243 7.99076 8.42869 7.99602C8.42233 8.00194 8.41529 8.00762 8.40709 8.01076C8.40133 8.0126 8.39797 8.01928 8.39073 8.01766C8.38045 8.01786 8.36999 8.01926 8.35979 8.01758C8.36043 8.01866 8.35667 8.01574 8.35729 8.01642H8.35725ZM8.22025 8.02542C8.21539 8.02042 8.21435 8.01832 8.21429 8.01342C8.21423 8.00846 8.21519 8.0065 8.21993 8.0017C8.22873 7.99284 8.23299 7.99264 8.24813 8.0003C8.26257 8.0076 8.26747 8.0083 8.26877 8.0031C8.27001 7.9981 8.27833 7.9935 8.28625 7.9935C8.29058 7.99323 8.29484 7.99469 8.29809 7.99754C8.30309 8.00146 8.30335 8.00208 8.30349 8.01114C8.30357 8.0204 8.30345 8.02074 8.29769 8.02586C8.29213 8.03074 8.29123 8.03106 8.28437 8.03034C8.27563 8.02948 8.27037 8.02546 8.26897 8.01858C8.26793 8.01358 8.26617 8.01238 8.26485 8.01578C8.26445 8.01688 8.26225 8.01822 8.26005 8.01878C8.25599 8.01978 8.24909 8.02414 8.24419 8.02878C8.24233 8.03052 8.23909 8.03134 8.23379 8.03138C8.22671 8.03146 8.22571 8.03104 8.22025 8.02542ZM7.82385 7.84742C7.81055 7.84756 7.79625 7.85874 7.79445 7.87182C7.79751 7.88682 7.81001 7.90158 7.80197 7.91742C7.80753 7.93768 7.78677 7.94536 7.77257 7.93368C7.76405 7.91424 7.75973 7.89296 7.74697 7.87554C7.73089 7.871 7.72389 7.89668 7.71257 7.90554C7.71817 7.92064 7.73451 7.9342 7.73637 7.95304C7.74025 7.97136 7.72913 7.99168 7.71323 8.00118C7.69949 8.01428 7.68069 8.00958 7.66383 8.01244C7.64335 8.02444 7.67887 8.0288 7.68823 8.02932C7.70915 8.03144 7.73091 8.02868 7.74633 8.01306C7.76173 8.00574 7.76053 7.97914 7.77883 7.9762C7.81059 7.9748 7.84209 7.98108 7.87383 7.98184C7.89083 7.98588 7.91709 7.9798 7.92883 7.99244C7.92887 8.01458 7.94763 8.02824 7.96571 8.03684C7.97567 8.03958 7.98619 8.02724 7.99631 8.02494C8.01563 8.01878 8.00977 7.9949 8.02131 7.98554C8.05431 7.98378 8.08765 7.98414 8.12071 7.98368C8.12699 7.98384 8.12885 7.97488 8.13321 7.97118C8.13245 7.95842 8.13201 7.94574 8.13005 7.93306C8.12369 7.91696 8.13109 7.8962 8.11945 7.88246C8.10285 7.87794 8.08871 7.89314 8.07193 7.89434C8.05341 7.90258 8.03781 7.9197 8.03693 7.94058C8.02597 7.95852 8.00839 7.93738 8.01443 7.92246C8.01377 7.91596 8.01587 7.90838 8.01383 7.90246C8.00369 7.8903 7.98593 7.89426 7.97195 7.89246C7.95159 7.89326 7.93171 7.88886 7.91135 7.88934C7.89347 7.88798 7.87489 7.8909 7.85759 7.88622C7.83695 7.88562 7.83979 7.86542 7.83633 7.85122C7.83269 7.84863 7.8283 7.84731 7.82383 7.84746L7.82385 7.84742ZM7.86385 7.92118C7.87071 7.9213 7.87719 7.92218 7.88385 7.92304C7.89245 7.92448 7.90165 7.9201 7.91011 7.92304C7.92963 7.92638 7.94917 7.9256 7.96885 7.92744C7.97405 7.92736 7.97777 7.93114 7.98135 7.93432C7.98139 7.94798 7.98135 7.96192 7.98135 7.97556C7.98075 7.98072 7.98287 7.98752 7.97823 7.99116C7.97675 7.99233 7.97505 7.99319 7.97323 7.99368C7.96779 7.99228 7.96203 7.98874 7.95943 7.98368C7.95863 7.97654 7.95983 7.9696 7.96007 7.96244C7.95993 7.96058 7.96087 7.9577 7.96007 7.95618C7.95592 7.95306 7.9509 7.95132 7.94571 7.95118C7.92871 7.95058 7.91207 7.94938 7.89511 7.94868C7.88095 7.9478 7.86641 7.94988 7.85257 7.94618C7.84721 7.94424 7.84023 7.9449 7.83697 7.93932C7.83227 7.93386 7.83903 7.92738 7.84383 7.92492C7.85013 7.92219 7.85697 7.92091 7.86383 7.92118H7.86385ZM8.08945 7.92618C8.09265 7.92612 8.09365 7.92718 8.09509 7.93304C8.09601 7.93684 8.09709 7.9414 8.09759 7.94304C8.09833 7.94544 8.09715 7.94618 8.09385 7.94744C8.08397 7.95116 8.07413 7.9508 8.07073 7.94618C8.06917 7.9441 8.07097 7.9375 8.07385 7.93494C8.07965 7.92974 8.08605 7.9262 8.08945 7.92618Z" fill="#C09300"/>
<path d="M7.99911 6.79511C8.65195 6.29299 8.59597 5.55745 8.59597 5.55745C8.57877 5.56089 8.56237 5.56261 8.54517 5.56261C8.40821 5.56261 8.08157 5.48427 8.00537 5.38477C7.92377 5.47483 7.58997 5.56261 7.45391 5.56261C7.43671 5.56261 7.41947 5.56089 7.40311 5.55745C7.40311 5.55745 7.34625 6.29297 7.99911 6.79511Z" fill="white" stroke="#C09300" stroke-width="0.023"/>
<path d="M8.54406 5.61077C8.53846 5.61113 8.5328 5.61129 8.5271 5.61129C8.403 5.61129 8.1147 5.54763 8.0036 5.45215C7.8872 5.54035 7.5942 5.61127 7.47208 5.61127C7.46638 5.61121 7.46071 5.61063 7.45512 5.60955C7.45482 5.63735 7.45628 5.66619 7.458 5.69243C7.46446 5.79043 7.48166 5.88883 7.50776 5.98347C7.58992 6.28137 7.75808 6.53453 7.9992 6.72657C8.24052 6.53437 8.40888 6.28097 8.4912 5.98287C8.51736 5.88823 8.5346 5.78987 8.54112 5.69187C8.54284 5.66617 8.54426 5.63803 8.54408 5.61077H8.54406Z" fill="white" stroke="#C09300" stroke-width="0.01832"/>
<path d="M7.78748 5.55063C7.67004 5.58753 7.54288 5.61123 7.47248 5.61123C7.46676 5.61123 7.46122 5.61043 7.4556 5.60937C7.45532 5.63717 7.457 5.66629 7.45872 5.69251C7.46531 5.7908 7.48186 5.88816 7.50812 5.98311C7.5634 6.18363 7.65824 6.36377 7.78748 6.51875V5.55063ZM8.19988 5.54883V6.53383C8.33576 6.37543 8.43454 6.18971 8.49176 5.98259C8.51799 5.88764 8.53454 5.79027 8.54116 5.69199C8.54284 5.66629 8.54446 5.63799 8.54426 5.61071C8.53862 5.61107 8.53306 5.61135 8.52736 5.61135C8.45276 5.61135 8.31896 5.58795 8.19986 5.54885L8.19988 5.54883Z" fill="#C09300"/>
<path d="M8.24609 5.31203C8.25943 5.31283 8.22805 5.24067 8.22805 5.24067C8.26335 5.27675 8.39665 5.28537 8.39665 5.28537C8.31665 5.25005 8.23669 4.98345 8.24609 4.77097C8.25473 4.55767 8.21553 4.47377 8.18415 4.44237C8.14415 4.40237 8.01555 4.36711 7.93087 4.36241C7.88301 4.36001 7.89087 4.39845 7.89087 4.39845C7.80227 4.37571 7.71367 4.36709 7.67363 4.39375C7.63599 4.41885 7.62815 4.54431 7.65563 4.52235C7.72223 4.46903 7.78029 4.51765 7.82027 4.57567C7.85555 4.62667 7.85321 4.77093 7.80223 4.93951C7.74891 5.11671 7.60303 5.29395 7.60303 5.29395C7.68223 5.29395 7.79363 5.22339 7.79363 5.22339L7.76695 5.33393C7.85085 5.29393 7.91751 5.23199 7.91751 5.23199L7.99751 5.31589C8.02415 5.28061 8.07747 5.23199 8.07747 5.23199C8.07747 5.23199 8.14413 5.30259 8.24607 5.31199L8.24609 5.31203Z" fill="white" stroke="#C09300" stroke-width="0.02436"/>
<path d="M7.92206 4.80157C7.92206 4.80157 7.87736 5.13013 7.79346 5.22345M7.99266 4.79297C7.99266 4.79297 7.9754 5.12543 7.91738 5.23209M8.05526 4.80637C8.05526 4.80637 8.05526 5.17021 8.07722 5.23217M8.13446 4.82437C8.13446 4.82437 8.1525 5.13017 8.22778 5.24077" stroke="#C09300" stroke-width="0.0254"/>
<path d="M7.8416 4.64222C7.83768 4.61322 7.8306 4.59046 7.8204 4.57556C7.78044 4.51756 7.7224 4.46892 7.65576 4.52224C7.65576 4.52224 7.6785 4.45168 7.72712 4.44934C7.76476 4.44698 7.85022 4.47754 7.92552 4.60614C7.92552 4.60614 7.86984 4.59362 7.85652 4.60538C7.8314 4.62734 7.8416 4.64222 7.8416 4.64222Z" fill="#C09300" stroke="#C09300" stroke-width="0.00708"/>
<path d="M7.64855 4.43533C7.65403 4.41729 7.66267 4.40083 7.67365 4.39377C7.71365 4.36711 7.80225 4.37573 7.89085 4.39847C7.89085 4.39847 7.88301 4.36007 7.93085 4.36241C8.01553 4.36711 8.14413 4.40241 8.18411 4.44241C8.19351 4.45261 8.20451 4.46749 8.21391 4.49021H8.21235C8.19275 4.46277 8.13707 4.46435 8.12375 4.46591C8.10255 4.46825 8.08923 4.46745 8.06099 4.47451C8.04767 4.47765 8.02727 4.48157 8.01629 4.49019C8.00769 4.49725 8.00061 4.52313 7.98729 4.52313C7.96609 4.52313 7.96769 4.51767 7.96219 4.51139C7.95513 4.50279 7.95119 4.49019 7.94415 4.49099C7.92221 4.49493 7.88691 4.47767 7.84223 4.44239C7.79753 4.40709 7.78027 4.39847 7.72223 4.40239C7.66503 4.40709 7.64697 4.43925 7.64697 4.43925L7.64857 4.43533H7.64855Z" fill="#C09300" stroke="#C09300" stroke-width="0.00708"/>
<path d="M7.97616 4.48747C7.98915 4.48747 7.99968 4.47694 7.99968 4.46395C7.99968 4.45096 7.98915 4.44043 7.97616 4.44043C7.96317 4.44043 7.95264 4.45096 7.95264 4.46395C7.95264 4.47694 7.96317 4.48747 7.97616 4.48747Z" fill="white"/>
</g>
</g>
</g>
<rect x="0.5" y="0.5" width="15" height="11.5" rx="1.5" stroke="#121117" stroke-opacity="0.56"/>
<defs>
<clipPath id="clip0_13154_47799">
<rect width="16" height="12.5" rx="2" fill="white"/>
</clipPath>
<clipPath id="clip1_13154_47799">
<rect width="16" height="12.5" fill="white"/>
</clipPath>
<clipPath id="clip2_13154_47799">
<rect width="16" height="12" fill="white" transform="translate(0 0.25)"/>
</clipPath>
</defs>
</svg>
