<svg width="16" height="13" viewBox="0 0 16 13" fill="none" xmlns="http://www.w3.org/2000/svg">
<g clip-path="url(#clip0_13154_47709)">
<g clip-path="url(#clip1_13154_47709)">
<g clip-path="url(#clip2_13154_47709)">
<mask id="mask0_13154_47709" style="mask-type:luminance" maskUnits="userSpaceOnUse" x="0" y="0" width="16" height="13">
<path d="M0 0.25H16.0001V12.25H0V0.25Z" fill="white"/>
</mask>
<g mask="url(#mask0_13154_47709)">
<path fill-rule="evenodd" clip-rule="evenodd" d="M-1 9.24984H16.9994V12.2498H-1V9.24984ZM-1 0.25H16.9994V3.25002H-1V0.25Z" fill="#FF0000"/>
<path fill-rule="evenodd" clip-rule="evenodd" d="M-1 3.25H16.9994V9.24981H-1V3.25Z" fill="white"/>
<path d="M7.90846 3.2959C7.72542 3.66136 7.60336 3.66136 7.29829 3.90504C7.17628 4.02687 6.99323 4.08778 7.23728 4.20963C6.99323 4.33144 6.87119 4.39238 6.74915 4.63601L6.81016 4.69692C6.81016 4.69692 7.04207 4.58325 7.05424 4.63601C7.09478 4.68471 6.74899 4.87158 6.70434 4.89998C6.65971 4.92839 6.44404 5.06241 6.44404 5.06241C6.13898 5.30609 5.95591 5.24513 5.77286 5.61061L6.38303 5.54974C6.50507 5.97612 6.07795 6.03701 5.77286 6.21977L5.28473 6.52437C5.40679 6.95074 5.77286 6.70709 6.07795 6.58526L6.13898 6.6462V6.768L5.52881 7.07259C5.52881 7.07259 4.8085 7.48472 4.79662 7.49897C4.7917 7.52105 4.79662 7.6208 4.79662 7.6208C5.04068 7.68173 5.40679 7.74265 5.65087 7.6208C5.95593 7.49897 6.01694 7.37714 6.38306 7.37714C5.95593 7.68169 5.65087 7.80354 5.16271 7.86443V8.10811C5.52881 8.10811 5.77286 8.10811 6.07797 8.0472L6.87119 7.80354C7.05424 7.80354 7.23729 7.98628 7.17628 8.169C6.99323 8.83903 6.261 8.71723 6.01692 9.26543L6.99323 8.89997C7.23729 8.77814 7.48134 8.65631 7.78643 8.71725C8.15252 8.83903 8.15252 9.08273 8.64068 9.20452L8.51866 8.89999C8.64068 8.96088 8.76271 8.96088 8.88473 9.0218C9.18984 9.14367 9.25085 9.26545 9.61692 9.20454C9.31186 8.83905 9.25085 8.89999 9.00677 8.65634C8.76271 8.29085 8.64068 7.74265 9.00677 7.68171L9.43389 7.80356C9.861 7.86445 9.861 7.74265 10.4712 7.9863C10.8373 8.10811 10.9593 8.29085 11.3864 8.16902C11.2034 7.74265 10.5322 7.43806 10.1051 7.31623C10.5932 7.01163 10.4712 7.43806 11.1424 7.25529V7.13351C10.6543 6.76802 10.4712 6.46343 9.79999 6.46343L10.8373 6.3416V6.21977C10.8373 6.21977 9.81429 5.95139 9.7905 5.94185C9.79762 5.91091 9.82265 5.86296 9.89057 5.83645C10.0848 5.96222 10.6724 5.94755 10.7057 5.9452C10.6886 5.7953 10.4102 5.67155 10.1661 5.54974C10.1661 5.54974 9.12105 4.90561 9.11587 4.84859C9.13659 4.68534 9.54511 4.87453 9.98306 5.00149C9.86104 4.75784 9.61697 4.63603 9.37291 4.57512L9.739 4.51423C9.49495 3.966 8.88475 4.02691 8.51868 3.78326C8.27458 3.60052 8.27458 3.47866 7.90851 3.29595L7.90846 3.2959Z" fill="#007900"/>
<path fill-rule="evenodd" clip-rule="evenodd" d="M7.24906 7.35329C7.29434 7.20812 7.35397 7.07968 7.08225 6.95594C6.81054 6.83223 7.21807 7.45079 7.24906 7.35329ZM7.57086 7.0629C7.51608 7.07003 7.48742 7.26997 7.59704 7.32468C7.71863 7.34366 7.61853 7.06532 7.57086 7.0629ZM7.88796 7.04158C7.83073 7.05826 7.82836 7.33902 8.02859 7.28908C8.22882 7.23915 8.02618 7.01783 7.88796 7.04158ZM8.25734 6.32064C8.30023 6.25161 8.25497 5.96849 8.08332 6.08744C7.91173 6.20643 8.2025 6.33967 8.25734 6.32064ZM7.88304 6.08509C7.93552 6.06606 7.94028 5.89236 7.79014 5.93758C7.64002 5.98281 7.84259 6.12079 7.88304 6.08509ZM7.54484 6.154C7.54484 6.154 7.43996 6.00885 7.35891 6.03976C7.25642 6.13733 7.55199 6.15636 7.54484 6.154ZM6.38257 6.61783C6.42722 6.62188 6.75821 6.56324 6.87261 6.43478C6.98698 6.30627 6.28369 6.48976 6.28369 6.49213C6.28369 6.4945 6.35011 6.60566 6.38257 6.61783ZM9.68984 5.79845C9.7069 5.7681 9.51366 5.63036 9.39884 5.68464C9.36929 5.78633 9.68888 5.81936 9.68984 5.79845ZM9.03921 5.47103C9.07498 5.41869 8.95582 5.20454 8.71749 5.32351C8.47913 5.44248 8.96771 5.55433 9.03921 5.47103ZM8.28593 5.34494C8.28593 5.34494 8.34549 5.15221 8.48853 5.19025C8.65062 5.31402 8.29306 5.35208 8.28593 5.34494ZM8.14531 5.19986C8.12382 5.14513 7.97368 5.17846 7.80209 5.29028C7.63043 5.40212 8.19772 5.32361 8.14531 5.19986ZM8.58382 4.68119C8.58382 4.68119 8.73671 4.61275 8.78164 4.68119C8.84602 4.78351 8.58146 4.68358 8.58382 4.68119ZM8.45562 4.61415C8.42464 4.55228 8.25546 4.54642 8.2598 4.63583C8.23144 4.70589 8.47964 4.69283 8.45562 4.61415ZM8.0525 4.61439C8.03583 4.57869 7.79515 4.61507 7.72362 4.75954C7.83844 4.81536 8.10497 4.70481 8.0525 4.61439ZM7.53757 4.76204C7.53757 4.76204 7.22093 4.95564 7.2015 5.09755C7.21111 5.22011 7.59474 4.87626 7.59474 4.87626C7.59474 4.87626 7.62811 4.74062 7.53757 4.76204ZM7.18718 4.58603C7.19604 4.54665 7.34363 4.45544 7.3564 4.46228C7.36836 4.50198 7.23586 4.60947 7.18718 4.58603ZM7.28726 5.32595C7.29439 5.26883 6.91067 5.27357 7.05607 5.44965C7.17715 5.59733 7.31351 5.35213 7.28726 5.32595ZM6.93804 5.57861C6.91803 5.54001 6.88925 5.43709 6.8367 5.42762C6.79388 5.42521 6.56314 5.47281 6.54549 5.51186C6.53597 5.54279 6.641 5.73299 6.67679 5.73775C6.71731 5.75439 6.93089 5.59764 6.93804 5.57861ZM9.00828 6.87025C9.02018 6.82982 9.41232 6.6943 9.54769 6.82394C9.70735 7.04284 8.99876 6.93929 9.00828 6.87025ZM10.0859 7.12642C10.1719 6.98101 9.8221 6.80863 9.67362 6.97478C9.72436 7.1744 10.0165 7.24665 10.0859 7.12642Z" fill="white" stroke="white" stroke-width="0.0754453" stroke-linecap="round" stroke-linejoin="round"/>
</g>
</g>
</g>
</g>
<rect x="0.5" y="0.5" width="15" height="11.5" rx="1.5" stroke="#121117" stroke-opacity="0.56"/>
<defs>
<clipPath id="clip0_13154_47709">
<rect width="16" height="12.5" rx="2" fill="white"/>
</clipPath>
<clipPath id="clip1_13154_47709">
<rect width="16" height="12.5" fill="white"/>
</clipPath>
<clipPath id="clip2_13154_47709">
<rect width="16" height="12" fill="white" transform="translate(0 0.25)"/>
</clipPath>
</defs>
</svg>
