<svg width="13" height="12" viewBox="0 0 13 12" fill="none" xmlns="http://www.w3.org/2000/svg">
<path d="M12.4131 4.51636C12.3949 4.45904 12.3604 4.40827 12.3138 4.37028C12.2671 4.33229 12.2104 4.30873 12.1506 4.30249L8.1403 3.87681L6.49766 0.168951C6.39823 -0.056317 6.03003 -0.056317 5.9306 0.168951L4.289 3.87681L0.278192 4.30249C0.21836 4.30889 0.161667 4.3325 0.114977 4.37046C0.0682869 4.40842 0.0336016 4.4591 0.0151203 4.51636C-0.00339639 4.57383 -0.00493965 4.63543 0.0106756 4.69376C0.0262908 4.75208 0.0584015 4.80467 0.103156 4.8452L3.09896 7.56291L2.2621 11.5333C2.25261 11.5787 2.25328 11.6256 2.26408 11.6706C2.27488 11.7156 2.29554 11.7577 2.32456 11.7938C2.35358 11.83 2.39025 11.8592 2.43193 11.8794C2.4736 11.8996 2.51924 11.9104 2.56557 11.9108C2.62015 11.9109 2.67377 11.8964 2.72092 11.8689L6.21439 9.84097L9.70837 11.8689C9.81401 11.9305 9.94659 11.9233 10.046 11.8508C10.0946 11.8151 10.1318 11.7662 10.1533 11.7099C10.1748 11.6536 10.1796 11.5923 10.1672 11.5333L9.33034 7.5624L12.3267 4.84468C12.3711 4.80407 12.403 4.75153 12.4184 4.69331C12.4338 4.63509 12.4322 4.57367 12.4137 4.51636H12.4131Z" fill="#121117"/>
</svg>
