<svg data-preply-ds-component="SvgTokyoUIIllustration" xmlns="http://www.w3.org/2000/svg" viewBox="0 0 1023 1024"><path d="M666.78 124.35c5.35 1.22 8.89 4.46 13.44 7.2 18.63 10.01 37.29 20.37 55.97 30.27 8.61 5.2 17.62 9.65 26.42 14.51 8.15 4.18 15.86 9.1 24.14 13.04 4.32 1.72 4.01 7.3 5.04 11.09 2.77 9.96 4.06 20.2 4.85 30.49.3 16.85.76 34.39-1.66 51.06-.64 8.52-1.98 16.94-3.05 25.4-1.73 9.52-3.44 19.02-5.14 28.54-1.87 7.39-3.14 14.9-5.16 22.25-2.97 14-7.02 27.61-10.8 41.32-7.96 26.54-16.77 52.82-26.72 78.69-2.64 7.81-6.38 15.11-8.95 22.93-7.38 17.45-14.61 35.02-22.88 52.07-4.52 10.5-10.03 20.53-14.86 30.9 2.34 4.68 4.38 9.37 6.27 14.25 2.7 5.75 5.13 11.59 7.55 17.46 3.32 6.59 5.33 13.69 8.68 20.25 1.05 2.1 2 4.25 2.9 6.42 11.66 27.39 23.42 54.17 34.98 81.73 5.85 13.06 11.42 26.05 16.93 39.25 4.13 9.76 8.61 19.39 12.53 29.24 5.88 13.45 11.83 26.91 17.37 40.51 8.9 20.15 17.51 40.65 26.16 60.94 1.9 5.21 5.02 10.63 4.84 16.19-5.37 2.3-10.74 1.9-16.42 1.55-8.08-.04-16.17.15-24.24.14-5.71-.38-11.38-.05-17.08.04-8.09-.31-16.11.34-24.19-.45-2.49-5.89-3.78-12.06-6.72-17.77-3.12-6-4.37-12.58-7.15-18.71-5.91-13.48-11.38-27.19-17.36-40.65-8.19-20.3-16.96-40.48-25.37-60.7-2.89-6.48-5.23-13.14-8.33-19.53-4.6-11.66-9.76-23.06-14.44-34.67-5.4-12.07-10.11-24.45-15.3-36.61-2.63-5.85-3.98-11.31-7.52-16.34-18.57 29.32-37.99 57.8-60.43 84.33-2.75 2.45-1.92 6.6-2.19 9.98.54 7.36.02 14.68.34 22.04.31 14.39-1.02 28.66-.06 42.99-.12 14.33.23 28.72-.15 43.05.39 9.97.14 19.98.21 29.95.08 4.33-.74 8.52-.92 12.85-7.25 3.08-13.63.46-21.24 1.26-8.01.14-16.06.28-24.06-.21-8.03-.39-15.97.31-23.98.57 1.1-8.99.69-18.37.59-27.45.12-26.66.2-53.45.17-80.11-7.92-3.49-16.18-6.06-24.17-9.35-1.87 5.11-4.09 10.08-5.96 15.19-4.35 11.46-9.47 22.58-14.08 33.93-4.37 8.91-7.24 18.38-11.44 27.35-2.36 5.13-4.26 10.45-6.55 15.6-4.48 8.17-7.93 16.93-12.55 25-9.35.15-18.72.2-28.07.06-4.79 0-9.81.48-14.55-.24-1.74-.93-3.02-3.08-4.4-4.5 4.37-12.26 10.25-23.92 14.91-36.1 3.92-9.39 8.08-18.69 11.77-28.18 7.01-15.81 13.33-31.92 20.12-47.81 2.4-5.8 5.47-11.2 7.3-17.24-14.13-5.38-28.24-10.94-42.22-16.71-8.03-3.84-13.49-10.59-17.3-18.48-5.19-10.96-7.61-23.41-8.69-35.43-3.17-25.99.08-54.12 3.51-80.02 1.98-11.82 3.27-23.58 6.15-35.23 5.23-25.91 11.53-51.51 19.21-76.8 4.38-15.88 9.61-31.56 15.04-47.11 4.44-14.05 9.77-27.83 15.1-41.55-13.64-4.29-27.53-7.83-41.19-12.08-11.25-3.05-22.45-6.25-33.66-9.46-7.58-2.52-15.4-4.17-22.98-6.66-4.39-1.43-8.92-2.26-13.31-3.69-9.98-3.23-20.23-5.64-30.25-8.78-16.19-4.47-32.25-9.38-48.48-13.73-9.19 5.4-18.93 9.67-28.02 15.23-6.28 3.88-13.75 5.87-20.1 9.77-4.08 2.59-8.52 5.11-13.13 6.58-14.39-4.37-28.39-8.06-42.74-12.4-13.89-3.42-27.68-7.5-41.26-12-6.06-2.68-12.41-3.06-18.78-4.5-2.3-.82-4.99-1.57-4.57-4.61 1.93-2.98 5.4-5.12 8.2-7.25 3.35-2.29 6.37-5.02 9.73-7.28 10.38-5.69 19.71-13.03 30-18.91-2.17-1.47-4.89-3.4-5.85-5.95-.86-3.91-.4-8.54 2.35-11.59 3.13-1.55 6.85-2.15 10.28-2.72-1.47-3.63-2.9-7.27-4.61-10.79-3.41-7.05-6.3-14.32-9.61-21.41-3.04-6.26-4.51-13.06-7.7-19.27-.85-2.1-2.63-4.99-1.85-7.26 1.56-1.51 3.32-2.66 5.59-2.4 5.55.5 11.07 3.11 16.41 4.66 6.06 2.18 12.23 4.22 18.15 6.74 3.75 2.84 6.78 6.94 8.72 11.22 2.52 5.32 5.69 10.24 8.95 15.13-.12-5.27.5-10.28 1.46-15.45 1.09-.71 2.18-1.43 3.27-2.14.54.59 1.09 1.18 1.63 1.77 5.58.85 11.12 2.17 16.44 4.05 3.73 1.29 6.85 3.18 10.83 3.73 5.17.72 10.77 1.63 15.62 3.75 2.12.97 2.92 2.95 3.9 4.91 5.6 12.07 11.13 24.25 16.73 36.33 2.45 5.74 4.76 12.45 8.52 17.47 7.51 3.29 16.07 4.61 23.88 7.24 23.16 6.49 46.56 12.96 69.57 19.43 8.8 2.78 17.84 4.65 26.66 7.37 7.94 2.63 16.17 4.13 24.08 6.91 7.38 1.86 14.72 3.76 21.97 6.1 11.32 3.06 22.65 6.14 33.88 9.53 8.45-19.52 16.38-39.3 25.71-58.41 4.04-8.89 8.02-17.77 12.84-26.26 12.01-24.99 25.63-49.24 40.19-72.83 6.52-11.51 14.12-22.45 21.66-33.31 4.48-6.77 9.36-13.28 14.36-19.65 7.42-10.1 15.28-19.97 23.99-28.99 6.72-7.59 14.05-14.68 21.89-21.11 7.58-6.68 16.06-12.54 25.18-16.9 9.38-4.26 19.06-6.77 29.31-4.06" fill="#302f3c"/><path d="M663.63 129.5c8.08 1.62 13.63 7.22 17.77 14.02 4.98 8.84 7.84 18.49 9.28 28.51 1.88 10.3 2.02 20.57 2.13 31.01-.11 9-.24 17.99-1 26.96-3.49 38.26-10.92 75.9-20.91 112.97-3.47 14.94-8.58 29.46-12.63 44.25-2.01 6.09-3.97 12.16-5.82 18.29-4.8 13.21-8.95 26.66-14.16 39.7-5.15 13.8-10.43 27.54-15.9 41.22-2.39 5.04-4.47 10.18-6.58 15.34-7.61 17.25-15.12 34.54-23.62 51.38-13.48 28.79-29.14 56.41-45.35 83.71-2.36 3.64-4.81 7.18-7.08 10.86-7.08 11.72-14.99 23.01-22.92 34.17-14.31 19.04-29.9 38.41-47.79 54.21-4.41 4.4-9.47 7.69-14.47 11.48-7.5 5.11-16.1 9.96-25.07 11.73-6.91 1.09-13.85.8-19.85-3.15-4.82-3.44-8.83-8.15-11.31-13.54-6.31-12.98-8.65-28.33-9.23-42.64-1.16-13.45-.09-26.55.55-39.97.29-5 .82-9.97 1.32-14.95.87-10.74 3.17-21.33 4.48-32.05 1.67-10.37 4.31-20.58 6.1-30.92 9.44-9.26 18.78-18.62 28.04-28.06-1.45 7-2.8 14.01-4.51 20.96-3.59 17.77-6.67 35.87-7.57 54-.5 8.35.33 16.7-.68 24.99-.21 6.15 1.15 12.55 2.61 18.51 1.3 5.37 3.84 10.41 7.41 14.63 4.39 5.39 12.6 7.13 19.14 5.54 6.44-1.29 12-4.49 17.08-8.54 7.14-5.15 13.6-11 19.53-17.5 16.18-17.15 29.29-36.32 41.73-56.27 6.23-10.1 12.71-20.24 18.25-30.73 4.22-7.55 8.6-14.96 12.26-22.81 5.64-10.16 10.61-20.64 15.9-30.98 4.83-11.1 10.39-21.84 15.14-32.98 6.06-14.12 12.37-28.11 17.58-42.57 6.32-14.32 11.39-29.37 16.68-44.12 2.22-5.46 4-11 5.61-16.66 3.27-9.43 6.32-18.94 9.23-28.5 2.93-10.32 5.67-20.69 8.68-30.99 2.3-10.37 5.25-20.56 7.21-31 2.02-10.03 3.96-20.1 5.62-30.2 2.28-14.86 3.5-29.79 3.86-44.82-.3-7.98-.92-16.06-2.5-23.9-1.71-6.45-4.48-13.82-9.48-18.44-5.99-5.28-13.9-5.56-21.21-3.2-10.83 3.93-18.84 10.92-27.06 18.7-8.92 8.86-16.77 18.56-24.41 28.53-4.4 5.99-8.97 11.82-12.93 18.12-5.41 7.42-9.72 15.49-14.79 23.12-12.68 20.33-23.64 41.3-34.65 62.56-9.36 19.19-18.71 38.32-26.84 58.08-3.84 8.09-7.04 16.42-10.53 24.66-6.34-1.28-12.51-3.15-18.67-5.07 7.93-19.13 15.98-38.19 24.99-56.84 5.46-12.61 12.06-24.59 18.05-36.97 2.86-6.3 6.48-12.16 9.78-18.22 7.89-15.14 16.6-29.89 25.57-44.4 12.1-20.18 25.66-39.39 39.98-58.04 9.05-11 17.89-21.96 28.26-31.77 6.72-7.09 14.34-13 22.02-18.99 4.41-3.4 9.59-5.88 14.53-8.43 7.08-3.49 15.31-5.09 23.15-3.99" fill="#ff70ad"/><path d="M687.18 140.8c23.52 13.24 47.01 26.33 70.68 39.31 6.63 3.23 12.62 7.52 19.29 10.7 2.67 1.72 7.33 3.22 8.07 6.62 2.05 5.55 3.42 11.12 3.93 17.03.69 7.49 1.71 15.01 2.11 22.52 0 16.36-.48 32.82-2.55 49.06-4.13 35.78-11.74 71.2-21.76 105.77-3.25 12.67-7.57 25.06-11.52 37.53-1.53 5.56-3.62 11.06-5.6 16.46-17.76 51.1-39.21 100.82-64.12 148.84-27.41 52.65-59.06 104.14-96.62 150.19-.4-5.09.24-10.13-.11-15.21-.51-5.87-.05-11.75-.33-17.64 3.19-8.73-2.04-21.05-11.84-22.48-8-.95-16.38.89-23.3 5.02-4.25 2.44-8.48 4.48-12.04 7.96-7.22 7.1-13.03 15.52-17.47 24.61-1.8 3.79-2.82 7.95-3.3 12.1-.66 12.6-.19 25.22-.83 37.81-.02 7.62-.01 15.24-.07 22.86-19.73-7.99-39.66-15.53-59.61-22.97-6.23-1.91-11.98-4.92-18.15-6.99-4.24-1.42-8.35-3.15-12.53-4.75 8.63-1.13 15.91-5 23.29-9.36 11.54-7.22 21.68-16.11 31.24-25.75 4.44-4.58 8.46-9.52 12.97-14.04 16.78-19.2 31.71-40.1 45.33-61.65 4.78-7 9.33-14.17 13.45-21.58 10.75-17.56 20.61-35.63 30.06-53.93 4.28-9.27 9.48-18.05 13.53-27.43 6.59-13.32 12.74-26.83 18.55-40.5 6.9-15.61 13.55-31.48 19.51-47.47 3.47-8.11 6.07-16.51 9.36-24.69 4.61-13.4 9.8-26.66 13.78-40.28 4.22-12.89 7.72-26 11.8-38.95 9.67-34.74 17.61-69.79 22.45-105.56.6-7.03 1.84-13.97 2.42-21 .68-12.36 1.81-24.56 1.33-36.96-.61-11.99-1.42-23.7-4.14-35.43-1.77-6.85-4.51-13.29-7.26-19.77" fill="#ffbcd8"/><path d="M642.89 185.12c3.1 2.1 5.26 5.67 6.74 9.04 4.24 10.21 4.63 20.84 4.86 31.72.1 18.42-2.49 36-5.53 54.06-4.1 20.9-8.44 41.88-14.56 62.29-4.39 16.98-10.14 33.44-15.33 50.17-4.68 13.24-9.44 26.39-14.14 39.57-4.19 9.92-8.07 19.97-11.93 30.02-4.62 10.12-8.56 20.56-13.19 30.67-8.32 18.45-16.83 36.99-26.41 54.83-5.87 11.94-12.6 23.39-18.87 35.09-7.97 13.27-15.99 26.49-24.47 39.44-6.48 8.82-12.12 17.68-19.15 25.9-10.26 12.76-22.08 26.23-36.13 34.85-4.56 2.58-10.44 5.42-15.79 4.57-4.22-.45-7.52-3.16-9.63-6.72-4.01-6.64-5.75-14.85-6.33-22.51-.46-4.87-1.95-9.18-1.68-14.1 1.31-32.19 7.41-62.84 14.95-94.03.67-4.46 5.08-7.52 8.06-10.63 8.82-9.05 17.83-17.89 26.68-26.92-2.09 8.41-4.88 16.61-6.72 25.06-2.44 7.56-3.47 15.39-5.43 23.07-1.73 8.22-3.08 16.56-3.87 24.93-.83 5.75-1.3 11.69-.81 17.5.36 4.56.49 8.78 3.02 12.77 1.75 2.82 4.24 4.89 7.73 4.8 5.52.33 9.28-3.05 13.17-6.39 7.84-6.5 13.87-15.02 19.74-23.31 4.04-5.44 7.1-11.5 10.96-17.07 9.76-16.4 18.31-33.2 26.77-50.27 7.06-15.38 14.11-30.7 20.64-46.32 2.58-6.99 5.6-13.79 8.36-20.7 8.11-21.57 16.13-43.12 22.69-65.23 4.25-12.66 7.44-25.52 10.69-38.47 3.53-15.22 6.78-31.18 7.6-46.8.14-5.49.35-11.67-1.51-16.9-1.17-3.23-1.96-6.24-4.93-8.3-3.77-2.5-8.16-1.63-11.88.44-8.31 5.07-13.62 12.03-19.46 19.57a339 339 0 0 0-23.36 36.61c-15.15 26.58-27.79 54.99-40.07 83.01-7.66-1.98-15.23-4.22-22.83-6.41 5.71-14.84 12.52-29.2 18.66-43.87 4.02-8.63 7.85-17.34 12.25-25.79 3.91-8.9 8.57-17.4 12.93-26.07 4.56-7.57 8.07-15.66 12.69-23.19 6.46-12.05 13.75-23.48 20.87-35.15 5.57-7.82 10.41-16.16 16.27-23.76 10.37-14.06 21.68-28.6 35.01-39.95 5.69-5.08 12.41-9.92 19.72-12.31 4.04-1.17 9.49-1.7 12.95 1.19" fill="#ffecda"/><path d="M121.46 262.4c6.27 1.91 12.28 4.48 18.51 6.49 5.54 1.8 10.65 4.36 16.37 5.63 2.96 6.1 5.46 12.33 9.03 18.12 2.91 4.73 5.58 10.08 9.51 14.04 1.28-.48 2.52-1.04 3.76-1.61.1-6.94.45-13.85 1.06-20.76 5.89 1.51 11.87 3.11 17.46 5.5 7.19 3.55 14.87 3.45 22.75 5.75 4.5 8.59 8.12 17.56 12.4 26.24 4.15 8.7 7.77 17.79 12.6 26.13-33.11-9.18-66.13-18.41-99.31-27.41-5.11-15.74-13.5-30.33-19.08-45.92-1.05-3.19-2.16-6.34-3.65-9.36-.47-.94-.93-1.89-1.41-2.84m472.59 22.98c2.78-.16 3.36 2.31 4.23 4.39 2.37 7.84 1.82 15.29.94 23.27-.61 6.17-1.23 12.32-2.61 18.37-7.69 40.38-20.78 79.56-35.27 117.95-2.13 6.31-4.86 12.35-7.5 18.45-6.4 15.99-13.24 31.8-20.75 47.3-8.65 19.38-18.99 38.06-29.62 56.42-8.75 13.74-18.14 29.64-30.99 39.92-2.22 1.83-5.69 4.02-8.66 2.9-2.36-2.55-3.07-5.99-3.59-9.32-1.48-8.65.38-18.2 1-27.06 3.65-22.32 9.59-44.22 15.76-65.97 1.07-3.31 1.81-7.22 4.24-9.79 4.45-4.85 9.45-9.2 14-13.96 9.71-9.98 19.49-19.85 29.28-29.74 4.59-4.62 6.67-10.28 8.63-16.34.92-3.05 2.8-6.64 2.48-9.86-1.24-3.5-4.57-4.27-7.72-5.31-6.05-1.66-12.11-3.21-18.07-5.17 8.76-20.79 18.54-41.17 28.5-61.4 2.82-6.06 6.5-11.62 9.52-17.56 1.89-3.73 3.83-7.41 6.17-10.88 5.71-9.13 11.18-18.65 17.93-27.06 3.52-4.26 6.44-8.67 10.57-12.39 3.15-2.84 7.2-6.58 11.53-7.16" fill="#ff70ad"/><path d="M143.13 324.87c15.92 5 31.98 9.33 48.02 13.93 20.95 5.58 41.73 11.95 62.74 17.33 9.95 3.27 20.14 5.72 30.21 8.64 8.71 2.11 17.15 5.12 25.88 7.18 6.57 1.77 13.03 3.88 19.65 5.48 9.85 2.8 19.63 5.79 29.56 8.31 7.68 1.87 15.09 4.61 22.8 6.36 20.52 5.83 41.22 11.63 61.79 17.32 6.32 1.24 12.33 3.24 18.45 5.19 8.47 2.1 16.82 4.64 25.24 6.93 14.11 4.28 28.44 7.75 42.55 12.04-1.59 4.38-3.15 8.77-4.7 13.16-6.04-2.16-12.19-3.92-18.29-5.88-10.43-3.43-21.2-5.72-31.63-9.21-6.68-2.28-13.62-3.49-20.28-5.81-8.85-3.32-18.16-4.95-27.18-7.8-20.37-6-40.78-11.95-61.27-17.52-29.49-8.72-59.17-16.86-88.66-25.56-26.19-7.34-52.27-15.01-78.42-22.47-17.81-4.65-35.34-10.29-53.12-15.07-4.13-1.1-8.59-2.42-12.23-4.72-2.39-1.15-1.8-4.32-2.28-6.53 3.81-1.2 7.13-2.6 11.17-1.3" fill="#ab583a"/><path d="M128.14 347.38c4.68 2.02 9.07 3.34 14.07 4.35 16.31 4.53 32.75 8.54 49.08 13.04 15.4 4.96 31.09 8 47 10.75-5.93 2.9-11.64 6.1-17.32 9.45-6.05 3.42-12.89 5.48-18.88 9.12-3.21 1.98-6.45 3.88-9.82 5.57-4.29-1.59-8.59-2.85-13.03-3.94-11.89-3.71-23.93-7.07-36.01-10.12-5.81-1.16-11.25-3.4-16.97-4.87-11.08-2.76-21.15-7.72-32.59-9.2 2.91-2.37 5.74-4.84 8.67-7.19 3.3-2.67 6.97-4.14 10.48-6.53 5.09-3.49 10.1-7.13 15.32-10.43m320.37 82.76c6.36.74 12.54 3.29 18.75 4.88-3.93 8.85-6.73 18.09-10.13 27.15-6.39 18-11.99 36.2-17.48 54.49-1.13 4.29-5.58 7.32-8.53 10.48-4.86 5.15-10.25 9.73-14.96 15.01-1.98 2.19-4.08 4.26-6.25 6.26 9.01-35.13 20.23-69.91 32.89-103.9 1.82-4.79 3.32-9.83 5.71-14.37" fill="#ff70ad"/><path d="M472.82 436.48c7.56 2.16 15.1 4.43 22.72 6.39-2.96 7.63-5.79 15.3-8.43 23.05-1.66 4.21-2.34 8.21-5.81 11.38-11.5 11.13-22.59 22.67-34.19 33.71 7.56-25.15 15.95-50.14 25.71-74.53" fill="#ffecda"/><path d="M500.78 444.36c3.82.77 7.46 1.83 11.13 3.15-6.78 6.24-13.68 12.49-19.75 19.42 2.47-7.66 5.57-15.12 8.62-22.57M105.12 575l.71-.41.72.41v.82l-.71.41-.72-.41z" fill="#ff70ad"/><path d="M681.01 687.88c8.3 1.01 16.51 2.13 24.56 4.48 9.38 1.79 17.92 5.58 26.56 9.5 4.67 2.37 9.48 5.14 13.21 8.86 3.46 4.44 4.93 10.6 7.31 15.69 5.92 13.17 11.72 26.37 17.19 39.74 20.52 46.59 40.04 93.67 61.07 140.03-24.31-.02-48.64.31-72.94-.07-1.47-6.24-3.56-12.04-6.29-17.84-5.39-11.72-10.15-23.78-15.28-35.6-3.45-9.07-7.81-17.74-11.25-26.82-5.87-13.84-11.72-27.71-17.41-41.62-3.7-8.13-7.11-16.38-10.51-24.64-4.36-9.41-7.94-19.15-12.16-28.63-5.56-13.7-11.86-27.13-17.19-40.91 4.29-1.1 8.65-2.65 13.13-2.17m-105.02 7.41c2.93.11 4.96 3.14 6.33 5.4 2.48 3.96.87 8.86.93 13.26.55 13.99.39 28.04-.02 42.03.06 17.33.4 34.67.08 52 .14 32.77.16 65.62.13 98.39-19.34.4-38.63-.14-57.95.76-.08-17.71.1-35.42-.17-53.12.19-7.02.2-14 .04-21.02.01-21.98-.14-44.02-.15-65.99.16-9.26-1.33-17.78.75-26.98 1.58-10.01 7.22-18.84 13.35-26.69 4.88-6.35 11.42-10.87 18.44-14.58 5.58-2.98 11.97-4.02 18.24-3.46m-89.75 110.74c-4.88 12.58-10.79 24.69-15.84 37.2-4.97 10.94-8.94 22.28-14.02 33.18-2.78 5.91-3.93 11.96-7.43 17.56-2.78 4.46-5.21 8.95-7.35 13.76-12.33.64-24.86.63-37.19.24 2-4.88 3.72-9.81 5.97-14.58 5.48-11.75 10.04-23.85 15.26-35.7 5.46-13.44 11.45-26.68 16.82-40.14.53-1.22 1.07-2.55 1.9-3.6 2.71-.73 5.62-.87 8.4-1.28 6.6-.87 12.85-3.08 19.47-3.86 4.78-.54 9.4-1.39 14.01-2.78" fill="#ab583a"/></svg>
