<svg width="21" height="21" viewBox="0 0 21 21" fill="none" xmlns="http://www.w3.org/2000/svg">
<path d="M5.127 0C4.93744 0 4.75564 0.0753037 4.62159 0.209345C4.48755 0.343387 4.41225 0.525187 4.41225 0.71475V1.82775H2.145C1.57673 1.82933 1.03217 2.05573 0.630269 2.45749C0.228367 2.85925 0.00178109 3.40373 0 3.972V6.102H20.0152V3.972C20.0137 3.40373 19.7873 2.85917 19.3855 2.45727C18.9837 2.05537 18.4393 1.82878 17.871 1.827H15.6037V0.7155C15.6037 0.621638 15.5853 0.528695 15.5493 0.441977C15.5134 0.35526 15.4608 0.276466 15.3944 0.210095C15.328 0.143725 15.2492 0.0910767 15.1625 0.0551571C15.0758 0.0192376 14.9829 0.000749946 14.889 0.000749946C14.7951 0.000749946 14.7022 0.0192376 14.6155 0.0551571C14.5288 0.0910767 14.45 0.143725 14.3836 0.210095C14.3172 0.276466 14.2646 0.35526 14.2287 0.441977C14.1927 0.528695 14.1742 0.621638 14.1742 0.7155V1.8285H5.84175V0.71475C5.84175 0.620888 5.82326 0.527944 5.78734 0.441227C5.75142 0.35451 5.69877 0.275716 5.6324 0.209345C5.56603 0.142975 5.48724 0.0903267 5.40052 0.0544072C5.31381 0.0184876 5.22086 0 5.127 0ZM15.798 9.9705C17.4202 9.9705 18.9 10.5997 20.0152 11.6145V7.533H0.000749946V16.983C0.00253103 17.5513 0.229117 18.0957 0.631019 18.4975C1.03292 18.8993 1.57748 19.1257 2.14575 19.1273H10.3012C9.81563 18.2268 9.56248 17.2193 9.56475 16.1962C9.56475 12.765 12.36 9.9705 15.798 9.9705Z" fill="black"/>
<path d="M15.7979 20.9999C18.4424 20.9999 20.5941 18.8482 20.5941 16.1962C20.5928 14.9245 20.087 13.7054 19.1878 12.8062C18.2886 11.9071 17.0695 11.4013 15.7979 11.3999C13.1459 11.3999 10.9941 13.5517 10.9941 16.1962C10.9943 17.4701 11.5005 18.6919 12.4013 19.5927C13.3022 20.4935 14.5239 20.9997 15.7979 20.9999ZM14.3684 15.4814H15.0831V14.7667C15.0828 14.6727 15.1011 14.5796 15.1369 14.4928C15.1728 14.4059 15.2254 14.327 15.2918 14.2606C15.3583 14.1942 15.4372 14.1415 15.524 14.1057C15.6109 14.0699 15.7039 14.0516 15.7979 14.0519C16.1909 14.0519 16.5126 14.3737 16.5126 14.7667V15.4814H17.2274C17.6204 15.4814 17.9421 15.8032 17.9421 16.1962C17.9424 16.2901 17.9242 16.3832 17.8883 16.47C17.8525 16.5569 17.7999 16.6358 17.7335 16.7022C17.667 16.7686 17.5881 16.8213 17.5013 16.8571C17.4144 16.8929 17.3213 16.9112 17.2274 16.9109H16.5126V17.6257C16.5129 17.7196 16.4947 17.8127 16.4588 17.8995C16.423 17.9864 16.3704 18.0653 16.304 18.1317C16.2375 18.1981 16.1586 18.2508 16.0718 18.2866C15.9849 18.3224 15.8918 18.3407 15.7979 18.3404C15.7038 18.3413 15.6104 18.3234 15.5233 18.2878C15.4362 18.2522 15.357 18.1996 15.2905 18.1331C15.2239 18.0665 15.1713 17.9874 15.1357 17.9002C15.1001 17.8131 15.0822 17.7198 15.0831 17.6257V16.9109H14.3684C14.2743 16.9118 14.1809 16.8939 14.0938 16.8583C14.0067 16.8227 13.9275 16.7701 13.861 16.7036C13.7944 16.637 13.7418 16.5579 13.7062 16.4707C13.6706 16.3836 13.6527 16.2903 13.6536 16.1962C13.6533 16.1022 13.6716 16.0091 13.7074 15.9223C13.7433 15.8354 13.7959 15.7565 13.8623 15.6901C13.9288 15.6237 14.0077 15.571 14.0945 15.5352C14.1814 15.4994 14.2744 15.4811 14.3684 15.4814Z" fill="black"/>
</svg>
