<svg width="24" height="24" viewBox="0 0 24 24" fill="none" xmlns="http://www.w3.org/2000/svg">
<path d="M12 0C5.37269 0 0 5.37269 0 12C0 18.6273 5.37269 24 12 24C18.6273 24 24 18.6273 24 12C24 5.37269 18.6273 0 12 0ZM2.06897 12C2.06897 6.52428 6.52428 2.06897 12 2.06897C14.3268 2.06701 16.5797 2.88596 18.3621 4.38166L4.38166 18.3621C2.88605 16.5796 2.06711 14.3268 2.06897 12ZM12 21.931C9.77446 21.9325 7.61361 21.1825 5.86759 19.8025L19.8025 5.86717C21.1824 7.6134 21.9324 9.77435 21.931 12C21.931 17.4757 17.4757 21.931 12 21.931Z" fill="#DD352E"/>
</svg>
