<svg width="20" height="20" viewBox="0 0 20 20" fill="none" xmlns="http://www.w3.org/2000/svg">
<path fill-rule="evenodd" clip-rule="evenodd" d="M10 2C5.37 2 2 4.743 2 8.5C2 10.984 3.429 12.959 5.7 14.064C5.8745 14.1486 6.02062 14.2822 6.12058 14.4483C6.22054 14.6145 6.27002 14.8062 6.263 15C6.263 15.262 6.268 15.502 6.272 15.73C6.278 16.078 6.284 16.396 6.272 16.717C6.263 16.98 6.242 17.261 6.206 17.601C7.545 17.096 8.552 16.363 9.16 15.457C9.25191 15.3147 9.37852 15.198 9.52791 15.1181C9.6773 15.0381 9.84458 14.9975 10.014 15C14.639 14.994 18 12.253 18 8.5C18 4.743 14.63 2 10 2ZM10.514 16.99C15.61 16.787 20 13.573 20 8.5C20 3.257 15.31 0 10 0C4.69 0 0 3.257 0 8.5C0 11.644 1.724 14.127 4.268 15.57L4.273 15.853C4.279 16.14 4.284 16.36 4.273 16.645C4.257 17.103 4.199 17.681 4.013 18.841C3.98706 19.0025 4.0011 19.1678 4.05391 19.3226C4.10672 19.4774 4.19668 19.6168 4.31591 19.7287C4.43514 19.8407 4.58 19.9216 4.73779 19.9646C4.89559 20.0075 5.0615 20.0111 5.221 19.975C7.377 19.487 9.291 18.525 10.514 16.99Z" fill="#121117"/>
</svg>
