<svg width="25" height="24" viewBox="0 0 25 24" fill="none" xmlns="http://www.w3.org/2000/svg">
<path fill-rule="evenodd" clip-rule="evenodd" d="M16.8 21.3333L16.5333 20L16 17.3333H20.6707C21.2473 17.3333 21.8172 17.2086 22.3412 16.9677C22.8651 16.7269 23.3308 16.3755 23.7063 15.9379C24.0818 15.5002 24.3582 14.9865 24.5166 14.432C24.675 13.8775 24.7117 13.2953 24.624 12.7253L23.188 3.392C23.0428 2.44763 22.5643 1.58645 21.8392 0.964275C21.114 0.342102 20.1901 4.50602e-05 19.2347 0H11.7547C10.1753 0.000172106 8.63135 0.467815 7.31733 1.344L5.33333 2.66667H0V14.6667H5.33333L9.51467 21.984C9.86449 22.5964 10.37 23.1054 10.98 23.4595C11.59 23.8135 12.2827 24 12.988 24H17.3333L16.8 21.3333ZM8.79733 3.56267L8 4.09333V13.9587L11.8307 20.6613C11.9472 20.8654 12.1157 21.035 12.3189 21.1531C12.5222 21.2711 12.753 21.3333 12.988 21.3333H14.0813L13.3853 17.856L12.7467 14.6667H20.6707C20.8629 14.6666 21.0528 14.625 21.2274 14.5447C21.402 14.4643 21.5571 14.3472 21.6823 14.2013C21.8074 14.0555 21.8995 13.8843 21.9522 13.6995C22.005 13.5146 22.0172 13.3206 21.988 13.1307L20.5533 3.79733C20.5049 3.48239 20.3453 3.19521 20.1034 2.9878C19.8615 2.78039 19.5533 2.66647 19.2347 2.66667H11.7547C10.7021 2.66696 9.67309 2.97871 8.79733 3.56267Z" fill="#121117"/>
</svg>
