<svg width="24" height="24" viewBox="0 0 24 24" fill="none" xmlns="http://www.w3.org/2000/svg">
<path d="M2.01514 7.03589H10.0151V9.03589H2.01514V7.03589Z" fill="#121117"/>
<path fill-rule="evenodd" clip-rule="evenodd" d="M7.98616 11.988C8.88226 11.9881 9.75238 12.2891 10.457 12.8427C11.1617 13.3962 11.66 14.1704 11.8722 15.041H21.9852V17.041H11.8452C11.6139 17.8871 11.111 18.6338 10.4138 19.166C9.7166 19.6982 8.86379 19.9865 7.98666 19.9865C7.10953 19.9865 6.25672 19.6982 5.55952 19.166C4.86232 18.6338 4.35939 17.8871 4.12816 17.041H2.01416V15.041H4.10016C4.31235 14.1702 4.81085 13.396 5.51569 12.8423C6.22054 12.2887 7.08989 11.9879 7.98616 11.988ZM7.98616 13.988C7.45573 13.988 6.94702 14.1988 6.57195 14.5738C6.19687 14.9489 5.98616 15.4576 5.98616 15.988C5.98616 16.5185 6.19687 17.0272 6.57195 17.4023C6.94702 17.7773 7.45573 17.988 7.98616 17.988C8.51659 17.988 9.0253 17.7773 9.40037 17.4023C9.77545 17.0272 9.98616 16.5185 9.98616 15.988C9.98616 15.4576 9.77545 14.9489 9.40037 14.5738C9.0253 14.1988 8.51659 13.988 7.98616 13.988Z" fill="#121117"/>
<path d="M16.949 3C17.6163 2.99067 18.2789 3.11406 18.8982 3.36301C19.5175 3.61196 20.0811 3.9815 20.5563 4.45016C21.0315 4.91883 21.4089 5.47726 21.6664 6.09302C21.9239 6.70877 22.0565 7.36957 22.0564 8.03701C22.0564 8.70445 21.9237 9.36522 21.666 9.98093C21.4084 10.5966 21.0309 11.155 20.5556 11.6236C20.0803 12.0921 19.5166 12.4616 18.8973 12.7104C18.2779 12.9592 17.6153 13.0825 16.948 13.073C15.6245 13.0544 14.3615 12.5155 13.4322 11.573C12.5029 10.6305 11.9819 9.36011 11.9819 8.0365C11.9819 6.7129 12.5029 5.44249 13.4322 4.49999C14.3615 3.55749 15.6255 3.01865 16.949 3ZM16.519 8.472L15.56 7.506L14.496 8.56201L16.507 10.591L20.061 7.083L19.007 6.015L16.519 8.472Z" fill="#121117"/>
</svg>
