<svg width="19" height="18" viewBox="0 0 19 18" fill="none" xmlns="http://www.w3.org/2000/svg">
<path fill-rule="evenodd" clip-rule="evenodd" d="M3 0L3.81 2.19L6 3L3.81 3.81L3 6L2.19 3.81L0 3L2.19 2.19L3 0ZM12.43 6.57L10.986 2.665L10 0L9.014 2.665L7.569 6.569L3.665 8.014L1 9L3.665 9.986L7.569 11.431L9.014 15.335L10 18L10.986 15.335L12.431 11.431L16.335 9.986L19 9L16.335 8.014L12.431 6.569L12.43 6.57ZM13.67 9L11.789 8.304L10.991 8.009L10.696 7.211L10 5.331L9.304 7.211L9.009 8.009L8.211 8.304L6.331 9L8.211 9.696L9.009 9.991L9.304 10.789L10 12.669L10.696 10.789L10.991 9.991L11.789 9.696L13.67 9ZM3.81 14.19L3 12L2.19 14.19L0 15L2.19 15.81L3 18L3.81 15.81L6 15L3.81 14.19Z" fill="#121117"/>
</svg>
