<svg width="18" height="18" viewBox="0 0 18 18" fill="none" xmlns="http://www.w3.org/2000/svg">
<path d="M0.918369 9.97C0.623369 8.055 0.476702 7.09833 0.838369 6.24917C1.20004 5.4 2.00337 4.82 3.6092 3.65917L4.8092 2.79167C6.8067 1.3475 7.80587 0.625 8.9592 0.625C10.1109 0.625 11.1092 1.3475 13.1075 2.79167L14.3075 3.65917C15.9134 4.82 16.7159 5.40083 17.0784 6.24917C17.44 7.09833 17.2934 8.055 16.9992 9.96917L16.7484 11.6025C16.3317 14.3158 16.1225 15.6725 15.1492 16.4825C14.1759 17.2925 12.7534 17.2917 9.90837 17.2917H8.00837C5.16253 17.2917 3.74004 17.2917 2.7667 16.4825C1.79337 15.6725 1.58504 14.3158 1.16837 11.6017L0.918369 9.97Z" stroke="black" stroke-width="1.25" stroke-linecap="round" stroke-linejoin="round"/>
</svg>
