<svg width="32" height="32" viewBox="0 0 32 32" fill="none" xmlns="http://www.w3.org/2000/svg">
<path fill-rule="evenodd" clip-rule="evenodd" d="M16.484 9.528L16.231 10.791L15.726 13.319H20.153C22.477 13.319 24.253 15.39 23.901 17.687L22.54 26.534C22.4022 27.4292 21.9485 28.2455 21.261 28.8352C20.5736 29.4249 19.6977 29.749 18.792 29.749H11.702C10.205 29.7488 8.74151 29.3055 7.496 28.475L5.618 27.223H2V15.848H5.615L9.58 8.91C9.91155 8.33005 10.3904 7.84798 10.9682 7.51258C11.5459 7.17718 12.202 7.00035 12.87 7H16.989L16.484 9.528ZM8.898 26.372L8.143 25.868V16.518L11.773 10.164C11.8837 9.97061 12.0436 9.80993 12.2364 9.69824C12.4292 9.58655 12.6482 9.52782 12.871 9.528H13.906L13.247 12.823L12.643 15.847H20.153C20.928 15.847 21.52 16.537 21.403 17.303L20.041 26.149C19.9951 26.4474 19.844 26.7195 19.6149 26.9162C19.3858 27.1128 19.0939 27.2209 18.792 27.221H11.702C10.704 27.221 9.72837 26.9256 8.898 26.372Z" fill="#121117"/>
<path d="M22.3409 7.32H26.7679C29.0919 7.32 30.8689 9.39 30.5159 11.687L29.1549 20.534C29.017 21.4292 28.5634 22.2455 27.8759 22.8352C27.1884 23.4249 26.3126 23.749 25.4069 23.749H24.4999L24.8539 21.221H25.4069C26.0309 21.221 26.5619 20.766 26.6569 20.149L28.0169 11.303C28.0445 11.1229 28.033 10.939 27.9829 10.7638C27.9329 10.5886 27.8455 10.4263 27.7269 10.288C27.6083 10.1497 27.4612 10.0387 27.2956 9.9626C27.1301 9.88648 26.9501 9.84705 26.7679 9.847H19.2579L20.5219 3.527H19.4859C19.0319 3.527 18.6139 3.771 18.3889 4.164L17.4999 5.5H14.5889L16.1939 2.91C16.5255 2.32969 17.0047 1.84737 17.5828 1.51194C18.1609 1.17652 18.8175 0.9999 19.4859 1H23.6049L22.3409 7.32Z" fill="#121117"/>
</svg>
