<svg width="160" height="160" viewBox="0 0 160 160" fill="none" xmlns="http://www.w3.org/2000/svg">
<path d="M146.421 42.9914L139.361 112.119L103.82 140.844L13.3428 119.077L13.4885 116.32L103.9 138.071L137.661 110.494L143.961 44.4186L64.6213 31.2757L66.6685 29.8214L146.421 42.9914Z" fill="#858499"/>
<path d="M137.607 110.429L143.965 44.4186L64.3017 31.4471L57.7017 94.4371L13.9346 116.369L103.765 137.989L137.607 110.429Z" fill="#C3BDC5"/>
<path d="M143.986 44.4271L137.653 110.47L57.6172 94.3457" fill="#C3BDC5"/>
<path d="M68.8488 35.2129L62.5231 91.8029L133.839 105.743V107.319L59.8945 92.6557L66.8174 34.4915L68.8488 35.2129Z" fill="#858499"/>
<path d="M139.733 46.7571L133.861 105.596L62.5439 91.6557L69.0154 34.9257L139.733 46.7571Z" fill="#91C168"/>
<path d="M130.015 112.833L103.865 133.911L23.9111 115.186L58.2311 96.65L130.015 112.833Z" fill="#858499"/>
<path d="M129.883 112.757L129.842 113.579L104.104 134.83L23.7773 115.844L23.9159 115.187L103.87 133.911L129.883 112.757Z" fill="#2F2F3B"/>
<path d="M68.9819 35.0657L68.8848 38.6428L139.116 50.4242L139.708 46.9057L68.9819 35.0657Z" fill="#0C872B"/>
<path d="M57.7453 94.3629L137.602 110.429M60.3281 92.6143L133.885 107.286M66.791 34.6886L139.708 46.79M62.4767 91.8429L133.858 105.694M139.662 108.967L103.828 138.039L13.4824 116.36L57.7496 94.3629" stroke="#2F2F3B" stroke-width="0.404286" stroke-linecap="round" stroke-linejoin="round"/>
<path d="M139.661 108.967L139.242 112.061L103.828 140.754L13.4824 119.076V116.36M64.1881 31.3243L57.7167 94.0515M137.644 110.543L143.961 44.4186M143.961 44.4186L64.1853 31.3243M143.961 44.4186L146.388 42.9329M66.651 29.8958L146.388 42.9343L139.66 108.969M60.151 92.6143L66.791 34.6886M62.4496 91.8358L68.9853 35.0643M133.884 107.286L139.707 46.79M64.2353 31.3L66.6539 29.8958M60.3281 92.6143L62.3667 91.86" stroke="#2F2F3B" stroke-width="0.404286" stroke-linecap="round" stroke-linejoin="round"/>
<path d="M52.5897 99.7615L125.368 116.246M45.8483 103.257L119.753 120.857M38.2526 107.376L113.8 125.647M31.3569 111.183L109.078 129.497M112.008 113.143L117.298 109.936M102.89 111.1L108.358 108.016M93.8611 109.05L99.3297 105.964M86.1211 107.343L91.3469 104.184M78.2369 105.539L83.704 102.453M70.1897 103.676L75.504 100.583M62.0754 101.879L67.244 98.9243M109.7 118.289L115.684 114.236M100.608 116.229L107.071 112.186M91.6969 114.021L98.0454 110.133M83.8711 112.307L90.0854 108.303M76.2783 110.354L82.4169 106.621M68.2711 108.434L74.2226 104.75M60.2069 106.703L66.2154 102.97M100.893 122.457L107.533 117.953M91.8797 120.283L98.9654 115.967M82.8854 118.1L89.8483 113.866M75.3954 116.221L82.1583 112.053M67.6726 114.376L74.4669 110.124M59.6097 112.489L66.5097 108.27M51.6397 110.609L58.5069 106.326M51.6397 121.563L57.7469 117.469M73.1254 126.7L79.3683 122.58M93.5211 125.747L98.6811 122.137M81.7569 123.056L87.0397 119.256M52.2711 115.943L57.6826 112.243M41.7569 113.571L47.2654 109.616M68.6769 38.5115L139.29 50.1543M103.828 138.039V140.574M103.99 133.861V134.501M129.943 112.841V113.48M129.945 113.48L104.063 134.747M23.7383 115.253V115.893L103.993 134.806M57.9726 96.71L129.951 112.676L103.865 133.886L23.7654 115.114L57.9726 96.71Z" stroke="#2F2F3B" stroke-width="0.404286" stroke-linecap="round" stroke-linejoin="round"/>
<path d="M118.29 54.8557L118.453 57.4157L117.976 62.2814L117.029 74.2528L116.09 84.1557L115.379 92.2128L113.017 92.9357L116.406 58.6871L116.56 56.5371L115.929 55.1014L114.043 54.7L82.2485 49.4328L78.6328 48.8743L80.6785 47.7585L82.7257 47.8328L115.54 53.1L117.344 53.5843L118.29 54.8557Z" fill="#0052B9"/>
<path d="M112.701 92.9357L73.5215 85.5928L76.9015 50.3928L77.3715 49.35L78.6329 48.8743L80.4443 49.1943L114.594 54.7814L115.929 55.1014L116.479 56.1357L116.407 58.6871L112.701 92.9357Z" fill="#35A0FD"/>
<path d="M79.5782 54.06L78.0011 53.74L75.4854 84.2286L111.212 90.7757L111.447 89.5786L77.1353 83.35L79.5782 54.06Z" fill="#0052B9"/>
<path d="M79.8139 53.9043L77.1367 83.3514L111.448 89.58L114.36 59.73L79.8139 53.9043Z" fill="#FFEAD8"/>
<path d="M84.1801 63.9957L84.0901 65.6214L107.766 69.5357L107.903 67.7372L84.1801 63.9957ZM83.7829 67.5986L83.6944 69.2229L107.369 73.1429L107.499 71.3386L83.7829 67.5986ZM83.3429 71.3886L83.2529 73.0057L106.929 76.9272L107.057 75.1229L83.3429 71.3886Z" fill="#858499"/>
<path d="M76.8027 52.2472L116.201 58.5972" stroke="#2F2F3B" stroke-width="0.404286" stroke-linecap="round" stroke-linejoin="round"/>
<path d="M79.1333 51.0143C79.3561 51.0143 79.5375 50.81 79.5375 50.5572C79.5375 50.3043 79.3561 50.0972 79.1318 50.0972C78.9075 50.0972 78.7275 50.3029 78.7275 50.5557C78.7275 50.8086 78.909 51.0157 79.1318 51.0157" fill="#FFC800"/>
<path d="M79.1333 51.0143C79.3561 51.0143 79.5375 50.81 79.5375 50.5572C79.5375 50.3043 79.3561 50.0972 79.1318 50.0972C78.9075 50.0972 78.7275 50.3029 78.7275 50.5557C78.7275 50.8086 78.909 51.0157 79.1318 51.0157" stroke="#2F2F3B" stroke-width="0.404286" stroke-linecap="round" stroke-linejoin="round"/>
<path d="M80.9287 51.2615C81.153 51.2615 81.333 51.0558 81.333 50.8029C81.333 50.55 81.153 50.3429 80.9287 50.3429C80.7044 50.3429 80.5244 50.5486 80.5244 50.8029C80.5244 51.0558 80.7058 51.2615 80.9287 51.2615Z" fill="#FF2500" stroke="#2F2F3B" stroke-width="0.404286" stroke-linecap="round" stroke-linejoin="round"/>
<path d="M82.8217 51.5571C83.0446 51.5571 83.226 51.3514 83.226 51.0971C83.226 50.8443 83.0446 50.6385 82.8203 50.6385C82.596 50.6385 82.416 50.8443 82.416 51.0971C82.416 51.35 82.5989 51.5571 82.8217 51.5571Z" fill="#0052B9" stroke="#2F2F3B" stroke-width="0.404286" stroke-linecap="round" stroke-linejoin="round"/>
<path d="M73.6567 85.6329L112.942 93.0015L116.59 56.8586C116.642 56.3798 116.509 55.8992 116.219 55.5149C115.929 55.1305 115.503 54.8713 115.028 54.79L79.0109 48.8743C78.7569 48.8344 78.4973 48.8471 78.2483 48.9117C77.9993 48.9764 77.7663 49.0915 77.5637 49.25C77.3612 49.4085 77.1933 49.607 77.0707 49.8331C76.9481 50.0592 76.8733 50.3081 76.851 50.5643L73.6152 85.5172" stroke="#2F2F3B" stroke-width="0.404286" stroke-linecap="round" stroke-linejoin="round"/>
<path d="M107.807 69.5014L84.0501 65.67L84.1572 64.0614L107.913 67.8928L107.807 69.5014ZM107.401 72.9885L83.6215 69.2971L83.7186 67.6885L107.499 71.38L107.401 72.9885ZM106.956 76.6485L83.1758 72.9557L83.2729 71.3471L107.053 75.0471L106.956 76.6485Z" stroke="#2F2F3B" stroke-width="0.404286" stroke-linecap="round" stroke-linejoin="round"/>
<path d="M77.9427 53.7572L114.333 59.7129L111.356 90.8343L75.4355 84.1629L77.9427 53.7572Z" stroke="#2F2F3B" stroke-width="0.404286" stroke-linecap="round" stroke-linejoin="round"/>
<path d="M77.7725 49.1043C77.8625 49.0543 78.9053 48.5614 79.7867 48.1443C80.5869 47.7642 81.4826 47.6328 82.3582 47.7671L115.708 52.96C117.447 53.28 118.75 54.4286 118.465 56.57L115.214 92.0743L113.104 92.9843M116.411 58.63L118.297 57.9586" stroke="#2F2F3B" stroke-width="0.404286" stroke-linecap="round" stroke-linejoin="round"/>
<path d="M75.4355 84.1643L77.0213 83.4258M77.0213 83.4258L111.388 89.6786M77.0213 83.4258L79.7627 54.1172" stroke="#2F2F3B" stroke-width="0.404286" stroke-linecap="round" stroke-linejoin="round"/>
<path d="M99.7411 42.9915L99.8954 45.5429L99.4254 50.4086L98.4797 62.3872L97.5326 72.2829L96.8297 80.3486L94.4668 81.0629L97.8483 46.8229L98.0097 44.6657L97.3797 43.2286L95.494 42.8272L63.6983 37.56L60.084 37.0015L62.1297 35.8857L64.1754 35.9672L96.9826 41.2357L98.7954 41.7115L99.7411 42.9915Z" fill="#DE8700"/>
<path d="M94.1554 81.0629L54.9668 73.72L58.3554 38.52L58.8239 37.4772L60.0868 37.0015L61.8897 37.3215L96.0468 42.91L97.3825 43.23L97.9325 44.2629L97.8511 46.8229L94.1554 81.0629Z" fill="#FFC800"/>
<path d="M61.0267 42.1872L59.4567 41.8672L56.9424 72.3658L92.6595 78.9043L92.8952 77.7072L58.591 71.4872L61.0267 42.1872Z" fill="#DE8700"/>
<path d="M61.266 42.0314L58.5889 71.4885L92.8917 77.7071L95.8031 47.8571L61.266 42.0314Z" fill="#FFEAD8"/>
<path d="M65.6355 52.1228L65.547 53.7485L89.2212 57.6699L89.3584 55.8642L65.6355 52.1228ZM65.2398 55.7328L65.1512 57.3499L88.8255 61.2714L88.9541 59.4671L65.2398 55.7328ZM64.7927 59.5157L64.7041 61.1399L88.3784 65.0542L88.5084 63.2571L64.7927 59.5157Z" fill="#858499"/>
<path d="M58.2588 40.3743L97.6588 46.7314" stroke="#2F2F3B" stroke-width="0.404286" stroke-linecap="round" stroke-linejoin="round"/>
<path d="M60.583 39.1428C60.8059 39.1428 60.9873 38.9371 60.9873 38.6828C60.9873 38.43 60.8059 38.2242 60.583 38.2242C60.3601 38.2242 60.1787 38.43 60.1787 38.6828C60.1787 38.9357 60.3601 39.1428 60.583 39.1428Z" fill="#FF2500" stroke="#2F2F3B" stroke-width="0.404286" stroke-linecap="round" stroke-linejoin="round"/>
<path d="M62.3857 39.39C62.6086 39.39 62.79 39.1828 62.79 38.93C62.79 38.6771 62.6086 38.47 62.3857 38.47C62.1614 38.47 61.9814 38.6757 61.9814 38.93C61.9814 39.1828 62.1629 39.39 62.3857 39.39Z" fill="#0C872B" stroke="#2F2F3B" stroke-width="0.404286" stroke-linecap="round" stroke-linejoin="round"/>
<path d="M64.2773 39.6929C64.5002 39.6929 64.6816 39.4871 64.6816 39.2329C64.6816 38.98 64.5002 38.7743 64.2773 38.7743C64.0545 38.7743 63.873 38.98 63.873 39.2343C63.873 39.4871 64.0545 39.6929 64.2773 39.6929Z" fill="#0052B9" stroke="#2F2F3B" stroke-width="0.404286" stroke-linecap="round" stroke-linejoin="round"/>
<path d="M55.1141 73.7601L94.3999 81.1286L98.047 44.9858C98.099 44.507 97.9664 44.0264 97.6763 43.642C97.3861 43.2576 96.9603 42.9984 96.4856 42.9172L60.467 37.0029C60.2131 36.9632 59.9538 36.976 59.7051 37.0407C59.4564 37.1053 59.2236 37.2204 59.0212 37.3787C58.8188 37.537 58.6511 37.7352 58.5285 37.9611C58.4059 38.1869 58.331 38.4355 58.3084 38.6915L55.0713 73.6458" stroke="#2F2F3B" stroke-width="0.404286" stroke-linecap="round" stroke-linejoin="round"/>
<path d="M89.2647 57.6372L65.5075 53.7972L65.6133 52.1886L89.3704 56.0286L89.2647 57.6372ZM88.8575 61.1157L65.079 57.4243L65.1761 55.8157L88.9561 59.5157L88.8575 61.1157ZM88.4118 64.7843L64.6318 61.0843L64.729 59.4757L88.509 63.1757L88.4118 64.7843Z" stroke="#2F2F3B" stroke-width="0.404286" stroke-linecap="round" stroke-linejoin="round"/>
<path d="M59.3916 41.8915L95.7887 47.8401L92.813 78.9615L56.8916 72.3001L59.3916 41.8915Z" stroke="#2F2F3B" stroke-width="0.404286" stroke-linecap="round" stroke-linejoin="round"/>
<path d="M59.2285 37.2314C59.3185 37.1814 60.3628 36.6885 61.2428 36.2714C62.0434 35.891 62.9396 35.7597 63.8157 35.8942L97.1642 41.0885C98.9042 41.4071 100.207 42.5557 99.9228 44.6985L96.6714 80.2L94.5599 81.11M97.8685 46.7571L99.7528 46.0842" stroke="#2F2F3B" stroke-width="0.404286" stroke-linecap="round" stroke-linejoin="round"/>
<path d="M56.8916 72.3L58.4687 71.5528L92.8459 77.8128M58.4659 71.5528L61.2087 42.2443" stroke="#2F2F3B" stroke-width="0.404286" stroke-linecap="round" stroke-linejoin="round"/>
<path d="M93.6667 19L96.9753 19.3771L103.89 20.1571C111.632 21.4114 116.671 28.7957 115.392 36.5429C115.044 38.6741 114.214 40.6977 112.965 42.4595C111.716 44.2212 110.081 45.6745 108.185 46.7086C106.458 47.6491 104.55 48.2111 102.588 48.3571C101.473 48.4459 100.351 48.3965 99.2481 48.21L94.3781 47.8814C94.2495 47.9786 94.1124 48.0795 93.9667 48.1843C91.8067 49.7529 87.5681 52.4186 85.861 53.8129C85.561 54.06 85.0681 54.2729 84.8667 53.9443C84.7853 53.8057 84.8024 53.6329 84.8267 53.4771C85.1824 51.04 85.5124 48.5871 85.9981 46.1743C79.941 43.7786 76.3981 37.42 77.5138 30.66C78.7995 22.9129 86.121 18.54 93.6667 18.9914V19Z" fill="#00A2FF" stroke="#2F2F3A" stroke-width="0.404286" stroke-miterlimit="10"/>
<path d="M107.054 28.2386C108.26 29.6586 108.09 30.5029 109.23 31.0286C110.16 31.4543 111.405 30.7815 111.591 29.7572C111.631 29.4987 111.631 29.2357 111.591 28.9772C111.423 27.7301 110.937 26.8843 110.08 25.9743C109.545 25.4172 108.695 24.6372 107.984 24.3415C107.273 24.0458 106.44 23.9958 105.744 24.3329C105.21 24.5872 104.758 25.1043 104.748 25.7043C104.724 27.1229 106.263 27.2943 107.063 28.2386H107.054Z" fill="#FFE8D5" stroke="#2F2F3C" stroke-width="0.404286" stroke-miterlimit="10"/>
<path d="M91.4346 47.1185L86.1774 46.0271L85.5303 48.98L91.4346 47.1185Z" fill="#2F2F3C"/>
<path d="M73.7543 28.9028L73.9157 31.4543L73.4471 36.3285L72.5 48.3L71.5543 58.1957L70.85 66.26L68.4886 66.9743L71.8686 32.7343L72.0228 30.5771L71.4 29.1414L69.5071 28.7385L37.72 23.4714L34.0957 22.9143L36.1428 21.7971L38.1886 21.88L71.0028 27.1471L72.8157 27.6228L73.7543 28.9028Z" fill="#FF2500"/>
<path d="M68.3339 66.9257L28.9854 59.63L32.3668 24.4299L32.8439 23.3957L34.0968 22.9114L35.9096 23.2314L70.0582 28.8199L71.4011 29.1399L71.9511 30.1828L71.8711 32.7328L68.3339 66.9257Z" fill="#FF2500"/>
<path d="M35.0411 28.1071L33.4725 27.7871L30.9482 58.2771L66.6754 64.8242L66.9097 63.6271L32.6068 57.3985L35.0411 28.1071Z" fill="#FF2500"/>
<path d="M35.2813 27.9429L32.6113 57.4L66.9142 63.6272L69.827 33.77L35.2813 27.9429Z" fill="#FFEAD8"/>
<path d="M39.6539 38.0428L39.5639 39.66L63.2397 43.5814L63.3682 41.7771L39.6539 38.0428ZM39.2511 41.6457L39.1625 43.27L62.8368 47.1843L62.9754 45.3871L39.2511 41.6457ZM38.8054 45.4286L38.7168 47.0528L62.3911 50.9743L62.5282 49.17L38.8054 45.4286Z" fill="#858499"/>
<path d="M32.2773 26.2943L71.6673 32.6457" stroke="#2F2F3B" stroke-width="0.404286" stroke-linecap="round" stroke-linejoin="round"/>
<path d="M34.5996 25.0557C34.8239 25.0557 35.0053 24.8486 35.0053 24.5957C35.0053 24.3429 34.8239 24.1357 34.601 24.1357C34.3767 24.1357 34.1953 24.3415 34.1953 24.5957C34.1953 24.85 34.3767 25.0557 34.601 25.0557" fill="#FFC800"/>
<path d="M34.5996 25.0557C34.8239 25.0557 35.0053 24.8486 35.0053 24.5957C35.0053 24.3429 34.8239 24.1357 34.601 24.1357C34.3767 24.1357 34.1953 24.3415 34.1953 24.5957C34.1953 24.85 34.3767 25.0557 34.601 25.0557" stroke="#2F2F3B" stroke-width="0.404286" stroke-linecap="round" stroke-linejoin="round"/>
<path d="M36.3975 25.31C36.6217 25.31 36.8032 25.1043 36.8032 24.85C36.8032 24.5972 36.6217 24.39 36.3975 24.39C36.1732 24.39 35.9932 24.5972 35.9932 24.85C35.9932 25.1029 36.1746 25.31 36.3975 25.31Z" fill="#0C872B" stroke="#2F2F3B" stroke-width="0.404286" stroke-linecap="round" stroke-linejoin="round"/>
<path d="M38.2905 25.6057C38.5133 25.6057 38.6948 25.3985 38.6948 25.1457C38.6948 24.8928 38.5133 24.6857 38.2905 24.6857C38.0662 24.6857 37.8848 24.8914 37.8848 25.1457C37.8848 25.3985 38.0662 25.6057 38.2905 25.6057Z" fill="#0052B9" stroke="#2F2F3B" stroke-width="0.404286" stroke-linecap="round" stroke-linejoin="round"/>
<path d="M29.1259 59.6714L68.4117 67.04L72.0588 30.8971C72.1108 30.4185 71.9781 29.9381 71.6879 29.5539C71.3978 29.1698 70.9719 28.9108 70.4974 28.83L34.4802 22.9143C34.2261 22.8743 33.9665 22.887 33.7176 22.9516C33.4686 23.0163 33.2356 23.1314 33.033 23.2899C32.8304 23.4484 32.6626 23.6469 32.54 23.873C32.4174 24.0991 32.3426 24.348 32.3202 24.6042L29.0859 59.5571" stroke="#2F2F3B" stroke-width="0.404286" stroke-linecap="round" stroke-linejoin="round"/>
<path d="M63.276 43.55L39.5202 39.7171L39.6345 38.11L63.3888 41.9414L63.276 43.55ZM62.876 47.0371L39.096 43.3371L39.1931 41.7286L62.9731 45.4286L62.876 47.0371ZM62.4245 50.6957L38.6445 46.9957L38.7488 45.3871L62.5202 49.0871L62.4245 50.6957Z" stroke="#2F2F3B" stroke-width="0.404286" stroke-linecap="round" stroke-linejoin="round"/>
<path d="M33.4114 27.8043L69.8014 33.7615L66.8329 64.8829L30.9043 58.2115L33.4114 27.8043Z" stroke="#2F2F3B" stroke-width="0.404286" stroke-linecap="round" stroke-linejoin="round"/>
<path d="M68.5717 67.0314L70.6846 66.1214L73.936 30.6186C74.2189 28.4843 72.9074 27.3286 71.1774 27.0086L37.8289 21.8143C36.9533 21.6746 36.056 21.8062 35.2574 22.1914C34.3746 22.61 33.3389 23.1028 33.2432 23.1514M71.8803 32.67L73.766 31.9971" stroke="#2F2F3B" stroke-width="0.404286" stroke-linecap="round" stroke-linejoin="round"/>
<path d="M30.9043 58.2115L32.49 57.4643M32.49 57.4643L66.8657 63.7258M32.49 57.4643L35.2314 28.1558" stroke="#2F2F3B" stroke-width="0.404286" stroke-linecap="round" stroke-linejoin="round"/>
<path d="M124.469 121.086L123.879 124.41L139.407 112.119L140.67 99.0157L138.47 100.787L137.442 110.601L124.469 121.086ZM134.105 105.743L133.837 107.319L106.345 101.797L115.59 102.199L134.105 105.743ZM69.6859 54.0857L72.0888 51.0729L70.5031 66.13L68.2317 67.0315L69.6859 54.0857ZM95.8231 68.0243L98.2159 65.0143L96.6302 80.07L94.3588 80.9729L95.8231 68.0243ZM114.286 80.1286L116.687 77.1157L115.095 92.1729L112.83 93.0829L114.286 80.1286ZM111.4 89.6286L111.157 90.7286L101.2 88.8986L102.89 88.1029L111.4 89.6286ZM92.8117 77.7557L92.5688 78.8557L82.6117 77.0172L84.3017 76.2214L92.8117 77.7557ZM66.8631 63.7914L66.6202 64.8986L56.6631 63.0615L58.3531 62.2643L66.8631 63.7914Z" fill="#2F2F3B"/>
</svg>
