<svg width="20" height="14" viewBox="0 0 20 14" fill="none" xmlns="http://www.w3.org/2000/svg">
<path d="M19.5987 2.37557C19.8591 2.11119 20.0032 1.75711 19.9999 1.38957C19.9967 1.02204 19.8463 0.67046 19.5813 0.410564C19.3162 0.150667 18.9576 0.00324677 18.5828 5.29899e-05C18.2079 -0.00314079 17.8468 0.138148 17.5772 0.393488L7.1407 10.6263L2.42285 6.0005C2.15321 5.74516 1.79208 5.60387 1.41723 5.60706C1.04238 5.61026 0.683804 5.75768 0.418735 6.01757C0.153666 6.27747 0.00331139 6.62905 5.40446e-05 6.99658C-0.0032033 7.36412 0.140897 7.7182 0.40132 7.98258L6.11993 13.5896C6.38803 13.8524 6.7516 14 7.13069 14C7.50978 14 7.87335 13.8524 8.14145 13.5896L19.5787 2.37557H19.5987Z" fill="#067560"/>
</svg>
