<svg width="25" height="24" viewBox="0 0 25 24" fill="none" xmlns="http://www.w3.org/2000/svg">
<path fill-rule="evenodd" clip-rule="evenodd" d="M16.8 2.66667L16.5333 4L16 6.66667H20.6707C21.2473 6.66669 21.8172 6.79141 22.3412 7.03228C22.8651 7.27314 23.3308 7.62445 23.7063 8.06213C24.0818 8.4998 24.3582 9.0135 24.5166 9.568C24.675 10.1225 24.7117 10.7047 24.624 11.2747L23.188 20.608C23.0428 21.5524 22.5643 22.4136 21.8392 23.0357C21.114 23.6579 20.1901 24 19.2347 24H11.7547C10.1753 23.9998 8.63135 23.5322 7.31733 22.656L5.33333 21.3333H0V9.33333H5.33333L9.51467 2.016C9.86449 1.40359 10.37 0.894555 10.98 0.54051C11.59 0.186464 12.2827 -7.62569e-06 12.988 2.33892e-10H17.3333L16.8 2.66667ZM8.79733 20.4373L8 19.9067V10.04L11.8307 3.33733C11.9473 3.13371 12.1156 2.96446 12.3186 2.84671C12.5215 2.72895 12.752 2.66684 12.9867 2.66667H14.08L13.384 6.144L12.7467 9.33333H20.6707C20.8629 9.33341 21.0528 9.37503 21.2274 9.45534C21.402 9.53566 21.5571 9.65277 21.6823 9.79866C21.8074 9.94454 21.8995 10.1157 21.9522 10.3006C22.005 10.4854 22.0172 10.6794 21.988 10.8693L20.5533 20.2027C20.5049 20.5176 20.3453 20.8048 20.1034 21.0122C19.8615 21.2196 19.5533 21.3335 19.2347 21.3333H11.7547C10.7021 21.333 9.67309 21.0213 8.79733 20.4373Z" fill="#121117"/>
</svg>
