<svg width="16" height="16" viewBox="0 0 16 16" fill="none" xmlns="http://www.w3.org/2000/svg">
<path d="M14.546 0H1.455C0.65 0 0 0.65 0 1.455V14.545C0 15.35 0.65 16 1.455 16H14.545C15.35 16 16 15.35 16 14.546V1.455C16 0.65 15.35 0 14.546 0ZM5.057 13.09H2.912V6.188H5.057V13.09ZM3.963 5.2C3.63135 5.2 3.31328 5.06825 3.07876 4.83374C2.84425 4.59922 2.7125 4.28115 2.7125 3.9495C2.7125 3.61785 2.84425 3.29978 3.07876 3.06526C3.31328 2.83075 3.63135 2.699 3.963 2.699C4.29479 2.699 4.61298 2.8308 4.84759 3.06541C5.0822 3.30002 5.214 3.61821 5.214 3.95C5.214 4.28179 5.0822 4.59998 4.84759 4.83459C4.61298 5.0692 4.29479 5.201 3.963 5.201M13.093 13.091H10.95V9.735C10.95 8.935 10.935 7.905 9.835 7.905C8.718 7.905 8.547 8.776 8.547 9.677V13.092H6.403V6.189H8.461V7.132H8.491C8.777 6.589 9.476 6.017 10.52 6.017C12.692 6.017 13.094 7.447 13.094 9.306L13.093 13.091Z" fill="#121117"/>
</svg>
