<svg data-preply-ds-component="SvgTokyoUIIllustration" xmlns="http://www.w3.org/2000/svg" viewBox="0 0 800 800"><path d="M783.97 14.79c2.82-.35 5.15.57 7.7 1.61.28 6.35-1.49 12.28-1.73 18.59-.56 10.19-2.79 20.02-4.32 30.02-2.65 17.75-5.09 35.28-7.53 53.03-1.8 9.78-2.72 19.66-4.24 29.48-5.15 35.88-10.41 72.62-15.43 108.5-3.51 20.76-5.46 41.87-9.52 62.53-1.16.99-2.29 2-3.4 3.03-24.54 1.25-49.17 2.42-73.68 3.7-9.51.26-19.33 1.51-28.82.79-4.13-4.13-7.26-9.49-10.9-14.09-5.16 7.27-9.62 15.16-14.56 22.57-5.3 7.75-10.19 15.79-15.31 23.67-34.4 53.35-68.65 106.5-103.1 159.85-13.69 21.07-27.07 42.39-41.33 63.08-8.74.78-17.54.78-26.28 1.62-15.18.74-30.34 2.06-45.53 2.73-11.09.9-22.34.81-33.37 2.23-.94-1.18-2.21-1.91-3.04-3.17-4.28-6.18-7.28-13.08-11.51-19.3-4.93 8.26-10.01 16.45-15.28 24.5-13.3 21.63-27.14 42.99-40.44 64.62-16.8 26.55-33.3 53.27-50.27 79.65-7.68 12.89-16.1 25.34-23.85 38.19-1.64 2.54-3.32 5.58-5.76 7.42-2.4.61-5.02.56-7.49.72-21.67 1.51-43.28 3.09-64.98 4.33-9.43.51-19.25 1.79-28.68 1.41-2.7-3.13-5.88-5.75-8.49-8.96-9.72-11.62-18.92-23.66-28.68-35.24-12.1-14.91-24.17-29.87-36.35-44.71-2.78-3.59-5.53-7.19-8.6-10.55 2.9-3.75 5.14-7.88 7.48-11.99 6.29-9.82 11.73-20.15 17.94-30.03 4.34-6.99 8.18-14.34 12.99-21.01 17.02-27.79 35.08-55.02 52.12-82.8 12.12-18.66 23.79-37.63 35.71-56.41 23.15-36.51 46.23-73.06 69.37-109.57 9.36-17.16 20.1-33.32 29.96-50.1 8.8-14.12 17.44-28.49 26.23-42.57 6.05-.34 11.94-.67 18-.39 12.31-1.09 24.68-1.29 36.96-2.59 11.02-.83 22.04-1.11 33.04-2.13 5.35-.08 10.85-1.13 16.16-.52 1.98 2.1 3.25 5.01 4.91 7.4 8.32 12.05 15.23 25.23 24.2 36.8 3.36 4.62 5.97 9.63 8.56 14.71 9.39-13.87 18.37-28.03 27.62-41.99 18.59-28.19 36.23-55.22 54.68-83.27 8.6-12.8 16.76-25.93 25.6-38.57-1.37-2.42-2.57-4.85-4.38-6.99-4.42-5.22-8.71-10.55-13.22-15.7-3.76-5.2-8.36-9.69-12.18-14.85-4.49-6.06-9.99-11.35-14.32-17.52-4.38-5.16-8.68-10.37-12.42-16.03 1.53-.96 3.05-1.9 4.78-2.49 7.9-2.89 15.99-5.25 23.87-8.18 9.29-3.51 18.85-6.24 28.08-9.88 34.34-11.55 68.46-23.85 102.84-35.37 8.17-2.8 16.2-5.93 24.5-8.35 12.79-4.68 25.77-8.9 38.68-13.27 2.15-.78 4.21-1.77 6.23-2.85 13.23-1.27 26.53-2.05 39.82-2.55 16.98-1.14 33.99-1.55 50.96-2.79" fill="#3a4743"/><path d="M788.01 18.15c-.73 6.29-1.82 12.51-2.14 18.85-.22 5.15-1.29 10.13-2.21 15.19-2.39 16.55-4.74 33.11-7.13 49.66-2.73 21.84-6.3 43.58-9.12 65.41-3.76 24.89-6.8 49.88-10.59 74.77-3.33 25.27-7.36 50.45-10.2 75.78-12.88.65-25.73 1.83-38.62 2.26-21.12 1.36-42.32 2.15-63.41 3.97.01-2.61.27-5.07.83-7.62 2.08-9.38 3.2-18.66 4.97-28.17 4.18-23.02 7.75-46.13 11.86-69.16 1.98-13 4.8-25.84 6.58-38.87 9.27-52.68 17.93-105.37 27.23-157.99 13.98-.39 27.97-.86 41.93-1.76 16.68-.73 33.36-1.44 50.02-2.32" fill="#09892a"/><path d="m688.39 25.45 3.39-1.35c-5.37 33.03-11.32 65.89-16.72 98.91-1.23 9.01-3.29 17.82-4.74 26.79-9.26 56.12-19.27 112.75-28.55 168.86-10.87-14.28-21.34-28.89-32.16-43.22-9.33-12.36-18.38-24.99-27.89-37.2-1.66-2.27-3.68-3.03-6.31-3.74-14.26 23.81-29.88 46.83-44.43 70.47-8.62 13.4-17.12 26.86-25.79 40.22-6.58 10.4-13.08 20.87-19.87 31.14-21.96 34.93-44.54 69.61-66.47 104.53-13.32 20.39-25.94 41.26-39.49 61.51a4924 4924 0 0 0-26.59 41.85c-2.67-5.54-5.9-10.75-8.86-16.13-14.12-24.23-28.1-48.65-42.03-72.98-3.44-5.2-5.68-10.83-9.73-15.51-4.96 5.28-8.09 11.48-12.14 17.41-4.95 7.73-9.94 15.43-14.79 23.23-5.41 8.28-10.87 16.52-16.02 24.96-38.76 60.92-77.51 121.83-116.23 182.76-11.18 17.22-21.91 34.75-33.17 51.91-4.84-6.05-10.02-11.8-14.62-18.04-20.55-24.95-40.51-50.28-61.16-75.11 1.99-3.56 4-7.1 6.17-10.55 10.42-17.24 20.3-34.84 31.3-51.72 17.03-27.57 34.61-54.76 51.7-82.29 10.22-16.12 20.54-32.2 30.49-48.48 8.06-12.35 15.87-24.85 23.63-37.4 19.18-30.07 37.87-59.99 56.84-90.17 16.09-26.04 32.76-51.76 48.48-78.03 23.07 39 45.3 78.79 68.55 117.73 5.17 7.44 8.24 16.27 14.77 22.12 4.03-4.2 6.78-9.17 10.02-13.95 30.16-46.17 59.93-91.82 90.05-137.96 22.78-35.1 45.83-70.06 68.36-105.32-3.21-6.56-8.35-11.13-12.98-17.14-7.1-7.95-13.61-16.36-20.38-24.59-7.64-8.86-14.92-18-22.74-26.71 4.63-1.74 9.25-3.51 13.97-5.01 9.51-3.04 18.82-6.65 28.33-9.72 15.68-5.84 31.66-10.78 47.38-16.51 21.36-7.25 42.64-14.79 63.98-22.13 13.51-5 27.25-9.3 40.75-14.31 8.59-3 17.22-5.81 25.7-9.13" fill="#93c368"/><path d="m350.15 227.02.71-.41.71.42-.01.82-.71.41-.71-.42z" fill="#93c368"/><path d="M577.96 238.5c4.16 5.98 8.41 11.83 12.87 17.61 12.68 17.74 26.13 34.93 38.71 52.73-33.86 52.89-68.08 105.81-102.08 158.62-23.58 36.74-47.51 73.28-70.65 110.29-27.25 1.72-54.58 3.44-81.81 5.26-5.92.33-11.85-.01-17.77.22C413.23 496.32 469.34 407.95 525 321c12.33-19.33 24.51-38.75 37.01-57.98 5.32-8.19 10.06-16.6 15.95-24.52m-204.12 41.74c2.53 2.82 4.15 6.49 6.27 9.63 9.18 14.24 17.92 28.74 26.99 43.05 1.1 1.85 2.4 3.93 2.78 6.06-1.07 3.4-3.58 6.45-5.49 9.42-16.08 24.48-32.16 48.94-48.17 73.46-5.34-9.75-12.42-18.39-18.07-27.98-15.65-26.74-30.85-53.76-46.52-80.49-5.18-9.41-10.91-18.5-15.93-27.99 25.44-1.12 50.85-2.95 76.3-4.32 7.22-.29 14.66-1.5 21.84-.84m-82.52 204.72c6.53 9.85 12.12 20.42 18.07 30.64 8.94 15.39 17.78 30.83 26.76 46.2-25.29 40.56-51.12 81.3-76.54 121.83-19.4 30.97-39.05 61.82-58.31 92.89-32.91 2.3-65.87 3.9-98.77 6.39 4.89-8.16 10.23-16.05 15.18-24.19 50.89-80.14 101.78-160.25 152.56-240.47 3.9-6.37 7.91-12.67 12.03-18.91 3.11-4.7 5.59-9.92 9.02-14.38" fill="#09892a"/></svg>
