<svg width="27" height="19" viewBox="0 0 27 19" fill="none" xmlns="http://www.w3.org/2000/svg">
<path fill-rule="evenodd" clip-rule="evenodd" d="M13.3333 18.6667C4 18.6667 0 9.33333 0 9.33333C0 9.33333 4 0 13.3333 0C22.6667 0 26.6667 9.33333 26.6667 9.33333C26.6667 9.33333 22.6667 18.6667 13.3333 18.6667ZM3.06133 9.23867L3.008 9.33333L3.064 9.42667C3.51333 10.184 4.19733 11.1893 5.12267 12.1867C6.97333 14.18 9.648 16 13.3333 16C17.0187 16 19.6933 14.1813 21.5467 12.1867C22.3267 11.3408 23.0162 10.4158 23.604 9.42667L23.66 9.33333L23.604 9.24C23.0158 8.2508 22.3258 7.32578 21.5453 6.48C19.6933 4.48667 17.0187 2.66667 13.3333 2.66667C9.648 2.66667 6.97333 4.48533 5.12 6.48C4.33995 7.32582 3.65042 8.25084 3.06267 9.24L3.06133 9.23867ZM13.3333 5.33333C12.2725 5.33333 11.2551 5.75476 10.5049 6.50491C9.75476 7.25505 9.33333 8.27247 9.33333 9.33333C9.33333 10.3942 9.75476 11.4116 10.5049 12.1618C11.2551 12.9119 12.2725 13.3333 13.3333 13.3333C14.3942 13.3333 15.4116 12.9119 16.1618 12.1618C16.9119 11.4116 17.3333 10.3942 17.3333 9.33333C17.3333 8.27247 16.9119 7.25505 16.1618 6.50491C15.4116 5.75476 14.3942 5.33333 13.3333 5.33333Z" fill="#121117"/>
</svg>
