<svg width="14" height="18" viewBox="0 0 14 18" fill="none" xmlns="http://www.w3.org/2000/svg">
<path fill-rule="evenodd" clip-rule="evenodd" d="M2 7C2 5.67392 2.52678 4.40215 3.46447 3.46447C4.40215 2.52678 5.67392 2 7 2C8.32608 2 9.59785 2.52678 10.5355 3.46447C11.4732 4.40215 12 5.67392 12 7C12 7.772 11.595 8.763 10.877 10H9.5V7C9.5 6.33696 9.23661 5.70107 8.76777 5.23223C8.29893 4.76339 7.66304 4.5 7 4.5C6.33696 4.5 5.70107 4.76339 5.23223 5.23223C4.76339 5.70107 4.5 6.33696 4.5 7V10H3.123C2.405 8.763 2 7.772 2 7ZM6.5 10H7.5V7C7.5 6.86739 7.44732 6.74021 7.35355 6.64645C7.25979 6.55268 7.13261 6.5 7 6.5C6.86739 6.5 6.74021 6.55268 6.64645 6.64645C6.55268 6.74021 6.5 6.86739 6.5 7V10ZM14 7C14 8.617 13.032 10.374 12 12H2C0.968 10.374 0 8.617 0 7C2.76642e-08 5.14348 0.737498 3.36301 2.05025 2.05025C3.36301 0.737498 5.14348 0 7 0C8.85652 0 10.637 0.737498 11.9497 2.05025C13.2625 3.36301 14 5.14348 14 7ZM12 15V13H2V15H12ZM4 16C4.437 17.165 5.615 18 7 18C8.385 18 9.563 17.165 10 16H4Z" fill="#FF2500"/>
</svg>
