<svg width="23" height="18" viewBox="0 0 23 18" fill="none" xmlns="http://www.w3.org/2000/svg">
<path d="M22.7997 6.09288C22.8017 6.51484 22.6813 6.92832 22.4531 7.28327C22.2249 7.63822 21.8988 7.91941 21.5141 8.0928L18.9569 9.25008L17.5284 9.8928L13.4712 11.7358C12.8247 12.0369 12.1201 12.1929 11.4069 12.1929C10.6938 12.1929 9.9892 12.0369 9.34271 11.7358L5.27135 9.8928L3.84287 9.25008L2.41439 8.59296V14.7641C2.51579 14.8278 2.59922 14.9163 2.65673 15.0213C2.71424 15.1264 2.74392 15.2443 2.74295 15.3641V16.8355C2.74388 16.9296 2.72604 17.0229 2.69047 17.1099C2.65491 17.197 2.60234 17.2761 2.53583 17.3426C2.46932 17.4091 2.39021 17.4617 2.30313 17.4973C2.21606 17.5329 2.12276 17.5507 2.02871 17.5498H1.37159C1.27751 17.5507 1.18419 17.5329 1.09709 17.4974C1.00999 17.4618 0.930851 17.4092 0.864316 17.3427C0.79778 17.2762 0.745184 17.1971 0.709604 17.11C0.674025 17.0229 0.656178 16.9296 0.657109 16.8355V15.3643C0.656186 15.2446 0.685914 15.1266 0.743465 15.0216C0.801016 14.9165 0.884476 14.828 0.985909 14.7643V8.19264C0.984916 8.10973 0.999404 8.02736 1.02863 7.94976C0.691748 7.7391 0.418541 7.44073 0.238286 7.08665C0.0580319 6.73257 -0.0224752 6.33611 0.00539316 5.93976C0.0332615 5.54341 0.168455 5.16212 0.396484 4.83674C0.624514 4.51136 0.936784 4.25417 1.29983 4.09272L9.34295 0.45C10.6538 -0.15 12.1605 -0.15 13.4714 0.45L21.5143 4.09296C21.899 4.26638 22.2252 4.54757 22.4533 4.90252C22.6815 5.25746 22.8017 5.67093 22.7997 6.09288ZM14.057 13.0356C13.2269 13.4214 12.3225 13.6213 11.4071 13.6213C10.4916 13.6213 9.58725 13.4214 8.75711 13.0356L3.84287 10.8214V12.6499C3.84443 13.1991 3.97135 13.7406 4.21395 14.2333C4.45656 14.7259 4.80845 15.1567 5.24279 15.4927C8.88191 18.2736 13.9322 18.2736 17.5713 15.4927C18.0038 15.1559 18.3535 14.7247 18.5936 14.2319C18.8338 13.7392 18.958 13.1981 18.9569 12.6499V10.8072L18.114 11.1929L14.057 13.0356Z" fill="black"/>
</svg>
