<svg width="18" height="18" viewBox="0 0 18 18" fill="none" xmlns="http://www.w3.org/2000/svg">
<path fill-rule="evenodd" clip-rule="evenodd" d="M13.9991 7.99906C13.9991 8.787 13.8439 9.56721 13.5423 10.2952C13.2408 11.0231 12.7989 11.6846 12.2417 12.2417C11.6846 12.7989 11.0231 13.2408 10.2952 13.5423C9.56721 13.8439 8.787 13.9991 7.99906 13.9991C7.21113 13.9991 6.43092 13.8439 5.70296 13.5423C4.97501 13.2408 4.31358 12.7989 3.75642 12.2417C3.19927 11.6846 2.75732 11.0231 2.45579 10.2952C2.15426 9.56721 1.99907 8.787 1.99907 7.99906C1.99907 6.40777 2.63121 4.88164 3.75642 3.75642C4.88164 2.63121 6.40777 1.99907 7.99906 1.99907C9.59036 1.99907 11.1165 2.63121 12.2417 3.75642C13.3669 4.88164 13.9991 6.40777 13.9991 7.99906ZM12.4961 14.6171C10.849 15.7362 8.8437 16.2008 6.87225 15.9201C4.9008 15.6394 3.10492 14.6335 1.83567 13.0991C0.566414 11.5647 -0.0849539 9.61209 0.00889645 7.62297C0.102747 5.63385 0.935068 3.75124 2.34315 2.34315C3.75124 0.935068 5.63385 0.102747 7.62297 0.00889645C9.61209 -0.0849539 11.5647 0.566414 13.0991 1.83567C14.6335 3.10492 15.6394 4.9008 15.9201 6.87225C16.2008 8.8437 15.7362 10.849 14.6171 12.4961L17.6561 15.5341L15.5341 17.6561L12.4961 14.6171Z" fill="#6A697C"/>
</svg>
