<svg width="24" height="24" viewBox="0 0 24 24" fill="none" xmlns="http://www.w3.org/2000/svg">
<path fill-rule="evenodd" clip-rule="evenodd" d="M14.2214 8.942L11.9994 3L9.77744 8.942L3.43994 9.219L8.40444 13.168L6.70944 19.281L11.9994 15.78L17.2894 19.281L15.5944 13.168L20.5589 9.219L14.2214 8.942ZM13.2344 10.301L11.9994 7L10.7654 10.301L7.24444 10.455L10.0024 12.649L9.06094 16.045L11.9999 14.1L14.9389 16.045L13.9969 12.649L16.7549 10.455L13.2344 10.301Z" fill="black"/>
<path d="M12 5.75L10.25 10H6.25L9 12.75L8.25 16.75L12 15.25L15.5 16.5L14.75 12.75L18 10L13.5 9.5L12 5.75Z" fill="black" stroke="black" stroke-width="0.5"/>
</svg>
