<svg width="19" height="19" viewBox="0 0 19 19" fill="none" xmlns="http://www.w3.org/2000/svg">
<path d="M9.33366 9.33333C11.911 9.33333 14.0003 7.244 14.0003 4.66667C14.0003 2.08934 11.911 0 9.33366 0C6.75633 0 4.66699 2.08934 4.66699 4.66667C4.66699 7.244 6.75633 9.33333 9.33366 9.33333Z" fill="black"/>
<path d="M11.0697 16.5389L9.33366 11.3496L7.59766 16.5389V16.5483L9.33366 18.2843L11.0697 16.5483V16.5389Z" fill="black"/>
<path d="M11.2 10.2666H10.9387L13.0013 16.4453C13.0686 16.6166 13.085 16.8037 13.0486 16.9842C13.0122 17.1646 12.9245 17.3308 12.796 17.4626L9.72533 20.5333H17.7333C17.9806 20.5325 18.2176 20.434 18.3925 20.2591C18.5674 20.0842 18.6659 19.8472 18.6667 19.5999V17.7333C18.6642 15.7537 17.8767 13.856 16.477 12.4563C15.0773 11.0565 13.1795 10.2691 11.2 10.2666ZM5.87067 17.4626C5.74219 17.3308 5.65447 17.1646 5.61805 16.9842C5.58163 16.8037 5.59805 16.6166 5.66533 16.4453L7.728 10.2666H7.46667C5.48714 10.2691 3.5894 11.0565 2.18966 12.4563C0.789927 13.856 0.00246978 15.7537 0 17.7333V19.5999C0.000738606 19.8472 0.0993089 20.0842 0.274183 20.2591C0.449057 20.434 0.686025 20.5325 0.933333 20.5333H8.95067C8.95067 20.5333 8.35333 19.9453 5.87067 17.4626Z" fill="black"/>
</svg>
