<svg width="18" height="18" viewBox="0 0 18 18" fill="none" xmlns="http://www.w3.org/2000/svg">
<path fill-rule="evenodd" clip-rule="evenodd" d="M9 16C8.08075 16 7.17049 15.8189 6.32122 15.4672C5.47194 15.1154 4.70026 14.5998 4.05025 13.9497C3.40024 13.2997 2.88463 12.5281 2.53284 11.6788C2.18106 10.8295 2 9.91925 2 9C2 8.08075 2.18106 7.17049 2.53284 6.32122C2.88463 5.47194 3.40024 4.70026 4.05025 4.05025C4.70026 3.40024 5.47194 2.88463 6.32122 2.53284C7.17049 2.18106 8.08075 2 9 2C10.8565 2 12.637 2.7375 13.9497 4.05025C15.2625 5.36301 16 7.14348 16 9C16 10.8565 15.2625 12.637 13.9497 13.9497C12.637 15.2625 10.8565 16 9 16ZM0 9C-1.76116e-08 7.8181 0.232792 6.64778 0.685084 5.55585C1.13738 4.46392 1.80031 3.47177 2.63604 2.63604C3.47177 1.80031 4.46392 1.13738 5.55585 0.685084C6.64778 0.232792 7.8181 0 9 0C10.1819 0 11.3522 0.232792 12.4442 0.685084C13.5361 1.13738 14.5282 1.80031 15.364 2.63604C16.1997 3.47177 16.8626 4.46392 17.3149 5.55585C17.7672 6.64778 18 7.8181 18 9C18 11.3869 17.0518 13.6761 15.364 15.364C13.6761 17.0518 11.3869 18 9 18C6.61305 18 4.32387 17.0518 2.63604 15.364C0.948211 13.6761 3.55683e-08 11.3869 0 9ZM8 6H5V9H8V6ZM10 6H13V9H10V6ZM9 14C9.9731 14.0001 10.9251 13.7164 11.7393 13.1835C12.5536 12.6507 13.1946 11.8918 13.584 11H4.416C4.80536 11.8918 5.44644 12.6507 6.26067 13.1835C7.0749 13.7164 8.0269 14.0001 9 14Z" fill="#121117"/>
</svg>
