<svg width="24" height="15" viewBox="0 0 24 15" fill="none" xmlns="http://www.w3.org/2000/svg">
<path d="M13.5755 0H2.62582C1.18162 0 0 1.18162 0 2.62582V11.4748C0 12.919 1.18162 14.1007 2.62582 14.1007H13.5755C15.0197 14.1007 16.2013 12.919 16.2013 11.4748V2.62582C16.2013 1.15536 15.0197 0 13.5755 0ZM22.0569 1.4442C21.8993 1.47046 21.7418 1.54923 21.6105 1.62801L17.5142 3.99125V10.0832L21.6368 12.4464C22.3982 12.8928 23.3435 12.6302 23.7899 11.8687C23.9212 11.6324 24 11.3698 24 11.081V2.96718C24 1.99562 23.081 1.20788 22.0569 1.4442Z" fill="black"/>
</svg>
