<svg width="18" height="18" viewBox="0 0 18 18" fill="none" xmlns="http://www.w3.org/2000/svg">
<path d="M15.303 2.61603C14.4768 1.78426 13.4937 1.12473 12.4107 0.675678C11.3277 0.226625 10.1664 -0.00302758 8.994 3.01367e-05C4.078 3.01367e-05 0.0769999 4.00003 0.0739999 8.91903C0.0720007 10.4842 0.482814 12.0223 1.265 13.378L0 18L4.728 16.76C6.03594 17.4724 7.50164 17.8455 8.991 17.845H8.994C13.91 17.845 17.912 13.844 17.914 8.92603C17.9178 7.75393 17.689 6.59272 17.241 5.50961C16.793 4.42651 16.1346 3.443 15.304 2.61603H15.303ZM8.994 16.339H8.991C7.66347 16.3392 6.36032 15.9824 5.218 15.306L4.948 15.145L2.141 15.881L2.891 13.145L2.714 12.865C1.97142 11.683 1.57861 10.3149 1.581 8.91903C1.582 4.83203 4.908 1.50603 8.998 1.50603C10.978 1.50703 12.838 2.27903 14.238 3.68103C14.9284 4.36827 15.4757 5.18559 15.8482 6.08572C16.2206 6.98584 16.4109 7.95089 16.408 8.92503C16.406 13.013 13.08 16.338 8.994 16.338V16.339ZM13.061 10.787C12.838 10.675 11.742 10.137 11.538 10.062C11.333 9.98803 11.185 9.95003 11.037 10.174C10.888 10.397 10.461 10.899 10.331 11.047C10.201 11.197 10.071 11.214 9.848 11.103C9.625 10.991 8.908 10.756 8.056 9.99703C7.393 9.40603 6.946 8.67703 6.816 8.45303C6.686 8.23003 6.802 8.10903 6.913 7.99803C7.013 7.89803 7.136 7.73803 7.248 7.60803C7.36 7.47803 7.396 7.38503 7.471 7.23603C7.545 7.08703 7.508 6.95703 7.452 6.84603C7.397 6.73403 6.951 5.63703 6.765 5.19103C6.584 4.75703 6.4 4.81603 6.264 4.80803C6.12141 4.8023 5.9787 4.79997 5.836 4.80103C5.72309 4.80401 5.61203 4.83033 5.50979 4.87835C5.40756 4.92637 5.31638 4.99504 5.242 5.08003C5.038 5.30303 4.462 5.84203 4.462 6.93903C4.462 8.03503 5.26 9.09503 5.372 9.24403C5.484 9.39403 6.944 11.644 9.179 12.61C9.711 12.84 10.126 12.977 10.449 13.08C10.984 13.249 11.469 13.225 11.853 13.168C12.282 13.104 13.172 12.628 13.358 12.108C13.543 11.588 13.543 11.141 13.488 11.048C13.432 10.955 13.283 10.899 13.06 10.788V10.787H13.061Z" fill="#121117"/>
</svg>
