<svg width="19" height="19" viewBox="0 0 19 19" fill="none" xmlns="http://www.w3.org/2000/svg">
<path d="M9.375 2.8125C8.07706 2.8125 6.80827 3.19738 5.72907 3.91848C4.64988 4.63958 3.80874 5.6645 3.31204 6.86364C2.81534 8.06278 2.68538 9.38228 2.9386 10.6553C3.19182 11.9283 3.81683 13.0976 4.73461 14.0154C5.6524 14.9332 6.82172 15.5582 8.09472 15.8114C9.36772 16.0646 10.6872 15.9347 11.8864 15.438C13.0855 14.9413 14.1104 14.1001 14.8315 13.0209C15.5526 11.9417 15.9375 10.6729 15.9375 9.375C15.9357 7.63508 15.2437 5.96694 14.0134 4.73662C12.7831 3.50631 11.1149 2.81432 9.375 2.8125ZM12.3625 11.6375C12.3043 11.7112 12.2303 11.7708 12.1459 11.8119C12.0615 11.8531 11.9689 11.8746 11.875 11.875C11.7337 11.8761 11.5965 11.8274 11.4875 11.7375L8.9875 9.8625C8.91384 9.8043 8.85424 9.73025 8.81313 9.64585C8.77201 9.56145 8.75044 9.46888 8.75 9.375V5C8.75 4.83424 8.81585 4.67527 8.93306 4.55806C9.05027 4.44085 9.20924 4.375 9.375 4.375C9.54076 4.375 9.69974 4.44085 9.81695 4.55806C9.93416 4.67527 10 4.83424 10 5V9.075L12.2625 10.7625C12.3275 10.8126 12.3819 10.8753 12.4222 10.9469C12.4626 11.0184 12.4882 11.0973 12.4975 11.1789C12.5068 11.2604 12.4997 11.3431 12.4765 11.4219C12.4533 11.5006 12.4145 11.574 12.3625 11.6375Z" fill="black"/>
<path d="M9.375 0C7.5208 0 5.70824 0.549834 4.16653 1.57997C2.62482 2.61011 1.42321 4.07429 0.713634 5.78734C0.00406213 7.5004 -0.181594 9.3854 0.180142 11.204C0.541879 13.0225 1.43476 14.693 2.74588 16.0041C4.057 17.3152 5.72746 18.2081 7.54603 18.5699C9.36461 18.9316 11.2496 18.7459 12.9627 18.0364C14.6757 17.3268 16.1399 16.1252 17.17 14.5835C18.2002 13.0418 18.75 11.2292 18.75 9.375C18.747 6.88951 17.7584 4.50667 16.0008 2.74916C14.2433 0.991654 11.8605 0.00297723 9.375 0ZM9.375 17.2294C7.82156 17.2294 6.30299 16.7687 5.01135 15.9057C3.7197 15.0426 2.71299 13.8159 2.11851 12.3807C1.52403 10.9455 1.36849 9.36629 1.67155 7.84269C1.97461 6.31909 2.72267 4.91957 3.82112 3.82112C4.91958 2.72266 6.31909 1.97461 7.84269 1.67154C9.36629 1.36848 10.9455 1.52402 12.3807 2.1185C13.8159 2.71298 15.0426 3.7197 15.9057 5.01134C16.7687 6.30299 17.2294 7.82155 17.2294 9.375C17.2274 11.4575 16.3992 13.4541 14.9267 14.9267C13.4541 16.3992 11.4575 17.2274 9.375 17.2294Z" fill="black"/>
</svg>
