<svg width="21" height="21" viewBox="0 0 21 21" fill="none" xmlns="http://www.w3.org/2000/svg">
<path d="M19.5 1.5H18V0.75C18 0.551088 17.921 0.360322 17.7803 0.21967C17.6397 0.0790176 17.4489 0 17.25 0C17.0511 0 16.8603 0.0790176 16.7197 0.21967C16.579 0.360322 16.5 0.551088 16.5 0.75V1.5H13.5V0.75C13.5 0.551088 13.421 0.360322 13.2803 0.21967C13.1397 0.0790176 12.9489 0 12.75 0C12.5511 0 12.3603 0.0790176 12.2197 0.21967C12.079 0.360322 12 0.551088 12 0.75V1.5H9V0.75C9 0.551088 8.92098 0.360322 8.78033 0.21967C8.63968 0.0790176 8.44891 0 8.25 0C8.05109 0 7.86032 0.0790176 7.71967 0.21967C7.57902 0.360322 7.5 0.551088 7.5 0.75V1.5H4.5V0.75C4.5 0.551088 4.42098 0.360322 4.28033 0.21967C4.13968 0.0790176 3.94891 0 3.75 0C3.55109 0 3.36032 0.0790176 3.21967 0.21967C3.07902 0.360322 3 0.551088 3 0.75V1.5H1.5C1.10218 1.5 0.720644 1.65804 0.43934 1.93934C0.158035 2.22064 0 2.60218 0 3V6H21V3C21 2.60218 20.842 2.22064 20.5607 1.93934C20.2794 1.65804 19.8978 1.5 19.5 1.5ZM0 19.5C0 19.8978 0.158035 20.2794 0.43934 20.5607C0.720644 20.842 1.10218 21 1.5 21H19.5C19.8978 21 20.2794 20.842 20.5607 20.5607C20.842 20.2794 21 19.8978 21 19.5V7.5H0V19.5ZM4.7175 13.7175C4.78722 13.6472 4.87017 13.5914 4.96157 13.5533C5.05296 13.5153 5.15099 13.4957 5.25 13.4957C5.34901 13.4957 5.44704 13.5153 5.53843 13.5533C5.62983 13.5914 5.71278 13.6472 5.7825 13.7175L6.015 13.9575C6.07904 12.9862 6.4563 12.0619 7.09018 11.3231C7.72407 10.5844 8.58039 10.0712 9.53069 9.86036C10.481 9.64955 11.474 9.75256 12.3608 10.1539C13.2476 10.5553 13.9804 11.2334 14.4491 12.0865C14.9179 12.9396 15.0974 13.9217 14.9607 14.8855C14.824 15.8492 14.3785 16.7427 13.691 17.4318C13.0035 18.1209 12.1111 18.5685 11.1476 18.7075C10.1842 18.8464 9.2017 18.6692 8.3475 18.2025C8.26083 18.1533 8.1847 18.0874 8.12347 18.0088C8.06224 17.9301 8.01711 17.8401 7.99064 17.744C7.96418 17.6479 7.9569 17.5475 7.96923 17.4486C7.98156 17.3497 8.01325 17.2542 8.0625 17.1675C8.11175 17.0808 8.17758 17.0047 8.25625 16.9435C8.33491 16.8822 8.42487 16.8371 8.52098 16.8106C8.71507 16.7572 8.92246 16.783 9.0975 16.8825C9.52614 17.1223 10.0089 17.2488 10.5 17.25C11.2956 17.25 12.0587 16.9339 12.6213 16.3713C13.1839 15.8087 13.5 15.0456 13.5 14.25C13.5039 13.7487 13.3773 13.255 13.1325 12.8175C12.8243 12.2661 12.3499 11.826 11.7769 11.5601C11.2039 11.2941 10.5615 11.2158 9.94142 11.3363C9.32131 11.4569 8.75507 11.7701 8.32342 12.2313C7.89176 12.6925 7.61672 13.2783 7.5375 13.905L7.7175 13.7175C7.85873 13.5763 8.05027 13.4969 8.25 13.4969C8.44973 13.4969 8.64127 13.5763 8.7825 13.7175C8.92373 13.8587 9.00307 14.0503 9.00307 14.25C9.00307 14.4497 8.92373 14.6413 8.7825 14.7825L7.2825 16.2825C7.21278 16.3528 7.12983 16.4086 7.03843 16.4467C6.94704 16.4847 6.84901 16.5043 6.75 16.5043C6.65099 16.5043 6.55296 16.4847 6.46157 16.4467C6.37017 16.4086 6.28722 16.3528 6.2175 16.2825L4.7175 14.7825C4.6472 14.7128 4.59141 14.6298 4.55333 14.5384C4.51525 14.447 4.49565 14.349 4.49565 14.25C4.49565 14.151 4.51525 14.053 4.55333 13.9616C4.59141 13.8702 4.6472 13.7872 4.7175 13.7175Z" fill="black"/>
</svg>
