<svg width="24" height="24" viewBox="0 0 24 24" fill="none" xmlns="http://www.w3.org/2000/svg">
<g clip-path="url(#clip0_12331_21765)">
<path d="M5.60854 4.86595L15.1762 2.25438L14.6695 1.23024C14.338 0.564545 13.5295 0.289643 12.8638 0.621143L4.29871 4.86595H5.60854ZM18.1462 2.32985C18.0277 2.32985 17.909 2.34602 17.7905 2.37836L15.5428 2.99284L8.67827 4.86595H19.8657L19.4453 3.32434C19.2836 2.72333 18.7391 2.32985 18.1462 2.32985ZM21.2698 5.80924H1.35025C0.924424 5.80924 0.544413 6.00598 0.296463 6.31592C0.183268 6.45876 0.0970242 6.62317 0.0485121 6.80374C0.0188658 6.91693 0 7.03552 0 7.1568V22.1713C0 22.9152 0.603706 23.5188 1.34756 23.5188H21.2672C22.011 23.5188 22.6147 22.9152 22.6147 22.1713V18.4116H14.6183C13.3543 18.4116 12.3275 17.3848 12.3275 16.1208V13.1238C12.3275 12.5039 12.5754 11.9407 12.977 11.5283C13.3327 11.1617 13.8098 10.9138 14.3434 10.8518C14.4323 10.841 14.524 10.8356 14.6156 10.8356H22.6147V7.1568C22.6174 6.41295 22.0137 5.80924 21.2698 5.80924Z" fill="black"/>
<path d="M23.5614 12.1235C23.4267 11.9996 23.2677 11.9052 23.0898 11.8432C22.9523 11.7975 22.8068 11.7705 22.6532 11.7705H14.619C13.8752 11.7705 13.2715 12.3742 13.2715 13.1181V16.1177C13.2715 16.8616 13.8752 17.4653 14.619 17.4653H22.6532C22.8068 17.4653 22.9523 17.4383 23.0898 17.3925C23.2677 17.3332 23.4267 17.2362 23.5614 17.1122C23.8309 16.8669 24.0007 16.5112 24.0007 16.1177V13.1181C24.0007 12.7246 23.8309 12.3688 23.5614 12.1235ZM17.4327 14.886C17.4327 15.258 17.1309 15.5598 16.759 15.5598H16.3116C15.9396 15.5598 15.6378 15.258 15.6378 14.886V14.4386C15.6378 14.223 15.7375 14.0317 15.8965 13.9104C16.0124 13.8214 16.1553 13.7649 16.3116 13.7649H16.759C17.1309 13.7649 17.4327 14.0667 17.4327 14.4386V14.886Z" fill="black"/>
</g>
<defs>
<clipPath id="clip0_12331_21765">
<rect width="24" height="24" fill="white"/>
</clipPath>
</defs>
</svg>
