<svg width="24" height="24" viewBox="0 0 24 24" fill="none" xmlns="http://www.w3.org/2000/svg">
<path fill-rule="evenodd" clip-rule="evenodd" d="M11.7876 4.7146H4.35278C3.05287 4.7146 2 5.8249 2 7.19259V19.5802C2 20.9491 3.05287 22.0582 4.35278 22.0582H17.2931C18.593 22.0582 19.6458 20.9491 19.6458 19.5802V10.513L15.0415 15.3613C14.6394 15.7889 14.1157 16.0844 13.5404 16.2084L10.3865 16.8729C8.3278 17.3058 6.51381 15.3952 6.92554 13.2285L7.55609 9.90692C7.6702 9.3079 7.95018 8.75684 8.36074 8.32512L11.7876 4.7146Z" fill="black"/>
<path fill-rule="evenodd" clip-rule="evenodd" d="M21.8186 2.5409C21.6997 2.24142 21.5253 1.9668 21.3046 1.73128C21.0875 1.50095 20.8258 1.31668 20.5352 1.18958C20.2489 1.06456 19.9397 1 19.627 1C19.3144 1 19.0051 1.06456 18.7189 1.18958C18.4283 1.31668 18.1666 1.50095 17.9495 1.73128L17.3072 2.40752L20.6622 5.94083L21.3046 5.26342C21.5276 5.02969 21.7023 4.75459 21.8186 4.4538C22.061 3.83894 22.061 3.15576 21.8186 2.5409ZM19 7.69227L15.6438 4.15779L10.0242 10.0778C9.94124 10.1657 9.88532 10.2753 9.86299 10.3937L9.23245 13.7164C9.1501 14.1493 9.5136 14.5307 9.92416 14.4442L13.0792 13.7808C13.194 13.7553 13.2985 13.6962 13.3792 13.6111L19 7.69227Z" fill="black"/>
</svg>
