<svg width="24" height="24" viewBox="0 0 24 24" fill="none" xmlns="http://www.w3.org/2000/svg">
<path d="M16.6071 7.57143H1V16.6071C1 17.6964 1.43272 18.7411 2.20295 19.5113C2.97319 20.2816 4.01786 20.7143 5.10714 20.7143H8.55714C7.85413 19.3367 7.5165 17.8017 7.57657 16.2562C7.63664 14.7107 8.0924 13.2066 8.90022 11.8877C9.70804 10.5688 10.8409 9.47933 12.1903 8.72359C13.5397 7.96785 15.0605 7.57114 16.6071 7.57143ZM20.7143 5.10714C20.7143 4.01786 20.2816 2.97319 19.5113 2.20295C18.7411 1.43272 17.6964 1 16.6071 1H5.10714C4.01786 1 2.97319 1.43272 2.20295 2.20295C1.43272 2.97319 1 4.01786 1 5.10714V5.92857H20.7143V5.10714ZM24 16.6071C24 18.5679 23.2211 20.4483 21.8347 21.8347C20.4483 23.2211 18.5679 24 16.6071 24C14.6464 24 12.766 23.2211 11.3796 21.8347C9.99317 20.4483 9.21429 18.5679 9.21429 16.6071C9.21429 14.6464 9.99317 12.766 11.3796 11.3796C12.766 9.99317 14.6464 9.21429 16.6071 9.21429C18.5679 9.21429 20.4483 9.99317 21.8347 11.3796C23.2211 12.766 24 14.6464 24 16.6071ZM19.653 14.7244C19.8072 14.5702 19.8939 14.361 19.8939 14.1429C19.8939 13.9247 19.8072 13.7155 19.653 13.5613C19.4988 13.407 19.2896 13.3204 19.0714 13.3204C18.8533 13.3204 18.6441 13.407 18.4899 13.5613L16.6071 15.4456L14.7244 13.5613C14.5702 13.407 14.361 13.3204 14.1429 13.3204C13.9247 13.3204 13.7155 13.407 13.5613 13.5613C13.407 13.7155 13.3204 13.9247 13.3204 14.1429C13.3204 14.361 13.407 14.5702 13.5613 14.7244L15.4456 16.6071L13.5613 18.4899C13.407 18.6441 13.3204 18.8533 13.3204 19.0714C13.3204 19.2896 13.407 19.4988 13.5613 19.653C13.7155 19.8072 13.9247 19.8939 14.1429 19.8939C14.361 19.8939 14.5702 19.8072 14.7244 19.653L16.6071 17.7686L18.4899 19.653C18.6441 19.8072 18.8533 19.8939 19.0714 19.8939C19.2896 19.8939 19.4988 19.8072 19.653 19.653C19.8072 19.4988 19.8939 19.2896 19.8939 19.0714C19.8939 18.8533 19.8072 18.6441 19.653 18.4899L17.7686 16.6071L19.653 14.7244Z" fill="black"/>
</svg>
