<svg width="20" height="19" viewBox="0 0 20 19" fill="none" xmlns="http://www.w3.org/2000/svg">
<path fill-rule="evenodd" clip-rule="evenodd" d="M6.18887 18.8093C6.26239 18.868 6.35098 18.9048 6.44447 18.9154C6.53795 18.926 6.63253 18.91 6.71734 18.8693C6.80215 18.8286 6.87375 18.7647 6.9239 18.6851C6.97406 18.6055 7.00073 18.5134 7.00087 18.4193V12.4993C7.00073 12.4052 6.97406 12.3131 6.9239 12.2335C6.87375 12.1539 6.80215 12.09 6.71734 12.0493C6.63253 12.0086 6.53795 11.9926 6.44447 12.0032C6.35098 12.0138 6.26239 12.0506 6.18887 12.1093L2.48887 15.0693C2.43047 15.1161 2.38334 15.1755 2.35096 15.243C2.31857 15.3105 2.30176 15.3844 2.30176 15.4593C2.30176 15.5342 2.31857 15.6081 2.35096 15.6756C2.38334 15.7431 2.43047 15.8024 2.48887 15.8493L6.18887 18.8093ZM13.8129 0.109289C13.7393 0.0505796 13.6508 0.013805 13.5573 0.00319172C13.4638 -0.00742159 13.3692 0.00855703 13.2844 0.0492909C13.1996 0.0900248 13.128 0.153861 13.0778 0.233463C13.0277 0.313066 13.001 0.405204 13.0009 0.499289V6.41929C13.001 6.51337 13.0277 6.60551 13.0778 6.68511C13.128 6.76472 13.1996 6.82855 13.2844 6.86929C13.3692 6.91002 13.4638 6.926 13.5573 6.91539C13.6508 6.90477 13.7393 6.868 13.8129 6.80929L17.5129 3.84929C17.5713 3.80244 17.6184 3.74307 17.6508 3.67557C17.6832 3.60807 17.7 3.53416 17.7 3.45929C17.7 3.38442 17.6832 3.31051 17.6508 3.24301C17.6184 3.17551 17.5713 3.11614 17.5129 3.06929L13.8129 0.109289Z" fill="black"/>
<path fill-rule="evenodd" clip-rule="evenodd" d="M16.0013 3.45898C16.0013 3.19377 15.896 2.93941 15.7085 2.75188C15.5209 2.56434 15.2666 2.45898 15.0013 2.45898H6.00135C5.00007 2.45876 4.01466 2.70912 3.13491 3.18724C2.25516 3.66537 1.50906 4.35606 0.964595 5.19637C0.42013 6.03667 0.0946175 6.99988 0.0177214 7.9982C-0.0591747 8.99652 0.114991 9.99821 0.524347 10.912C0.634167 11.1519 0.834347 11.3387 1.08127 11.4316C1.3282 11.5246 1.60185 11.5162 1.84262 11.4083C2.08339 11.3004 2.27175 11.1017 2.36666 10.8555C2.46158 10.6093 2.45535 10.3356 2.34935 10.094C2.07649 9.48477 1.96045 8.81695 2.01178 8.15139C2.06311 7.48584 2.28019 6.84371 2.64324 6.28353C3.00628 5.72336 3.50375 5.26295 4.09029 4.94426C4.67684 4.62558 5.33382 4.45875 6.00135 4.45898H15.0013C15.2666 4.45898 15.5209 4.35363 15.7085 4.16609C15.896 3.97855 16.0013 3.7242 16.0013 3.45898ZM4.00135 15.459C4.00135 15.7242 4.1067 15.9786 4.29424 16.1661C4.48178 16.3536 4.73613 16.459 5.00135 16.459H14.0013C15.0026 16.4592 15.988 16.2089 16.8678 15.7307C17.7475 15.2526 18.4936 14.5619 19.0381 13.7216C19.5826 12.8813 19.9081 11.9181 19.985 10.9198C20.0619 9.92145 19.8877 8.91976 19.4783 8.00598C19.3685 7.76608 19.1683 7.5793 18.9214 7.48634C18.6745 7.39338 18.4008 7.40177 18.1601 7.50969C17.9193 7.6176 17.731 7.8163 17.636 8.06248C17.5411 8.30866 17.5473 8.58237 17.6533 8.82399C17.9262 9.43321 18.0423 10.101 17.9909 10.7666C17.9396 11.4321 17.7225 12.0743 17.3595 12.6344C16.9964 13.1946 16.4989 13.655 15.9124 13.9737C15.3259 14.2924 14.6689 14.4592 14.0013 14.459H5.00135C4.73613 14.459 4.48178 14.5643 4.29424 14.7519C4.1067 14.9394 4.00135 15.1938 4.00135 15.459Z" fill="black"/>
</svg>
