<svg width="24" height="22" viewBox="0 0 24 22" fill="none" xmlns="http://www.w3.org/2000/svg">
<path d="M0.70208 16.8758H19.0779C19.2427 16.8758 19.402 16.8181 19.5283 16.713C19.7048 16.5652 23.731 13.1017 23.9765 5.62525H4.24121C3.99665 12.4118 0.288765 15.6017 0.250232 15.6336C0.0243312 15.8244 -0.0587819 16.1362 0.0428476 16.4136C0.143774 16.6904 0.406802 16.8758 0.70208 16.8758ZM23.2968 1.40631H19.781V0.703156C19.781 0.309389 19.4716 0 19.0779 0C18.6841 0 18.3747 0.309389 18.3747 0.703156V1.40631H14.812V0.703156C14.812 0.309389 14.5027 0 14.1089 0C13.7151 0 13.4057 0.309389 13.4057 0.703156V1.40631H9.88995V0.703156C9.88995 0.309389 9.58056 0 9.18679 0C8.79302 0 8.48363 0.309389 8.48363 0.703156V1.40631H4.96785C4.57408 1.40631 4.26469 1.7157 4.26469 2.10947V4.21894H24V2.10947C24 1.7157 23.6906 1.40631 23.2968 1.40631Z" fill="black"/>
<path d="M20.4313 17.7915C20.0494 18.1094 19.5702 18.2825 19.0778 18.2825H4.26465V20.392C4.26465 20.7806 4.57915 21.0951 4.96781 21.0951H23.2968C23.6854 21.0951 23.9999 20.7806 23.9999 20.392V12.5098C22.6442 15.8357 20.7525 17.5227 20.4313 17.7915Z" fill="black"/>
</svg>
